<?xml version="1.0" encoding="UTF-8" standalone="no"?>
<!DOCTYPE svg PUBLIC "-//W3C//DTD SVG 1.1//EN"
 "http://www.w3.org/Graphics/SVG/1.1/DTD/svg11.dtd">
<!-- Generated by graphviz version 2.47.0 (20210316.0004)
 -->
<!-- Title: dependencies Pages: 1 -->
<svg width="504pt" height="211pt"
 viewBox="0.00 0.00 504.00 211.00" xmlns="http://www.w3.org/2000/svg" xmlns:xlink="http://www.w3.org/1999/xlink">
<g id="graph0" class="graph" transform="scale(1 1) rotate(0) translate(4 207)">
<title>dependencies</title>
<polygon fill="white" stroke="transparent" points="-4,4 -4,-207 500,-207 500,4 -4,4"/>
<text text-anchor="start" x="227.01" y="-42.4" font-family="Times-12" font-weight="bold" font-size="14.00">Legend</text>
<polygon fill="#ffffb3" stroke="transparent" points="14,-10 14,-30 34,-30 34,-10 14,-10"/>
<text text-anchor="start" x="37.63" y="-15.4" font-family="Times-12" font-size="14.00"> &#160;Declarations</text>
<polygon fill="#8dd3c7" stroke="transparent" points="127,-10 127,-30 147,-30 147,-10 127,-10"/>
<text text-anchor="start" x="150.73" y="-15.4" font-family="Times-12" font-size="14.00"> &#160;Module</text>
<polygon fill="#80b1d3" stroke="transparent" points="213,-10 213,-30 233,-30 233,-10 213,-10"/>
<text text-anchor="start" x="236.78" y="-15.4" font-family="Times-12" font-size="14.00"> &#160;Bootstrap</text>
<polygon fill="#fdb462" stroke="transparent" points="310,-10 310,-30 330,-30 330,-10 310,-10"/>
<text text-anchor="start" x="333.67" y="-15.4" font-family="Times-12" font-size="14.00"> &#160;Providers</text>
<polygon fill="#fb8072" stroke="transparent" points="406,-10 406,-30 426,-30 426,-10 406,-10"/>
<text text-anchor="start" x="429.73" y="-15.4" font-family="Times-12" font-size="14.00"> &#160;Exports</text>
<g id="clust1" class="cluster">
<title>cluster_LikedMeModule</title>
<polygon fill="none" stroke="black" stroke-dasharray="1,5" points="105,-70 105,-195 391,-195 391,-70 105,-70"/>
</g>
<g id="clust2" class="cluster">
<title>cluster_LikedMeModule_declarations</title>
<polygon fill="none" stroke="black" points="235,-78 235,-130 383,-130 383,-78 235,-78"/>
</g>
<g id="clust4" class="cluster">
<title>cluster_LikedMeModule_imports</title>
<polygon fill="none" stroke="black" points="113,-78 113,-130 227,-130 227,-78 113,-78"/>
</g>
<!-- LikedMeComponent -->
<g id="node1" class="node">
<title>LikedMeComponent</title>
<polygon fill="#ffffb3" stroke="black" points="375.15,-122 242.85,-122 242.85,-86 375.15,-86 375.15,-122"/>
<text text-anchor="middle" x="309" y="-99.8" font-family="Times,serif" font-size="14.00">LikedMeComponent</text>
</g>
<!-- LikedMeModule -->
<g id="node2" class="node">
<title>LikedMeModule</title>
<polygon fill="#8dd3c7" stroke="black" points="294.37,-187 291.37,-191 270.37,-191 267.37,-187 183.63,-187 183.63,-151 294.37,-151 294.37,-187"/>
<text text-anchor="middle" x="239" y="-164.8" font-family="Times,serif" font-size="14.00">LikedMeModule</text>
</g>
<!-- LikedMeComponent&#45;&gt;LikedMeModule -->
<g id="edge1" class="edge">
<title>LikedMeComponent&#45;&gt;LikedMeModule</title>
<path fill="none" stroke="black" d="M268.55,-122.11C268.55,-122.11 268.55,-140.99 268.55,-140.99"/>
<polygon fill="black" stroke="black" points="265.05,-140.99 268.55,-150.99 272.05,-140.99 265.05,-140.99"/>
</g>
<!-- SharedModule -->
<g id="node3" class="node">
<title>SharedModule</title>
<polygon fill="#8dd3c7" stroke="black" points="219.42,-122 216.42,-126 195.42,-126 192.42,-122 120.58,-122 120.58,-86 219.42,-86 219.42,-122"/>
<text text-anchor="middle" x="170" y="-99.8" font-family="Times,serif" font-size="14.00">SharedModule</text>
</g>
<!-- SharedModule&#45;&gt;LikedMeModule -->
<g id="edge2" class="edge">
<title>SharedModule&#45;&gt;LikedMeModule</title>
<path fill="none" stroke="black" d="M201.39,-122.11C201.39,-122.11 201.39,-140.99 201.39,-140.99"/>
<polygon fill="black" stroke="black" points="197.89,-140.99 201.39,-150.99 204.89,-140.99 197.89,-140.99"/>
</g>
</g>
</svg>
