<?xml version="1.0" encoding="UTF-8" standalone="no"?>
<!DOCTYPE svg PUBLIC "-//W3C//DTD SVG 1.1//EN"
 "http://www.w3.org/Graphics/SVG/1.1/DTD/svg11.dtd">
<!-- Generated by graphviz version 2.47.0 (20210316.0004)
 -->
<!-- Title: dependencies Pages: 1 -->
<svg width="504pt" height="211pt"
 viewBox="0.00 0.00 504.00 211.00" xmlns="http://www.w3.org/2000/svg" xmlns:xlink="http://www.w3.org/1999/xlink">
<g id="graph0" class="graph" transform="scale(1 1) rotate(0) translate(4 207)">
<title>dependencies</title>
<polygon fill="white" stroke="transparent" points="-4,4 -4,-207 500,-207 500,4 -4,4"/>
<text text-anchor="start" x="227.01" y="-42.4" font-family="Times-12" font-weight="bold" font-size="14.00">Legend</text>
<polygon fill="#ffffb3" stroke="transparent" points="14,-10 14,-30 34,-30 34,-10 14,-10"/>
<text text-anchor="start" x="37.63" y="-15.4" font-family="Times-12" font-size="14.00"> &#160;Declarations</text>
<polygon fill="#8dd3c7" stroke="transparent" points="127,-10 127,-30 147,-30 147,-10 127,-10"/>
<text text-anchor="start" x="150.73" y="-15.4" font-family="Times-12" font-size="14.00"> &#160;Module</text>
<polygon fill="#80b1d3" stroke="transparent" points="213,-10 213,-30 233,-30 233,-10 213,-10"/>
<text text-anchor="start" x="236.78" y="-15.4" font-family="Times-12" font-size="14.00"> &#160;Bootstrap</text>
<polygon fill="#fdb462" stroke="transparent" points="310,-10 310,-30 330,-30 330,-10 310,-10"/>
<text text-anchor="start" x="333.67" y="-15.4" font-family="Times-12" font-size="14.00"> &#160;Providers</text>
<polygon fill="#fb8072" stroke="transparent" points="406,-10 406,-30 426,-30 426,-10 406,-10"/>
<text text-anchor="start" x="429.73" y="-15.4" font-family="Times-12" font-size="14.00"> &#160;Exports</text>
<g id="clust1" class="cluster">
<title>cluster_LikedMeModule</title>
<polygon fill="none" stroke="black" stroke-dasharray="1,5" points="105,-70 105,-195 391,-195 391,-70 105,-70"/>
</g>
<g id="clust4" class="cluster">
<title>cluster_LikedMeModule_imports</title>
<polygon fill="none" stroke="black" points="269,-78 269,-130 383,-130 383,-78 269,-78"/>
</g>
<g id="clust2" class="cluster">
<title>cluster_LikedMeModule_declarations</title>
<polygon fill="none" stroke="black" points="113,-78 113,-130 261,-130 261,-78 113,-78"/>
</g>
<!-- LikedMeComponent -->
<g id="node1" class="node">
<title>LikedMeComponent</title>
<polygon fill="#ffffb3" stroke="black" points="253.15,-122 120.85,-122 120.85,-86 253.15,-86 253.15,-122"/>
<text text-anchor="middle" x="187" y="-99.8" font-family="Times,serif" font-size="14.00">LikedMeComponent</text>
</g>
<!-- LikedMeModule -->
<g id="node2" class="node">
<title>LikedMeModule</title>
<polygon fill="#8dd3c7" stroke="black" points="311.37,-187 308.37,-191 287.37,-191 284.37,-187 200.63,-187 200.63,-151 311.37,-151 311.37,-187"/>
<text text-anchor="middle" x="256" y="-164.8" font-family="Times,serif" font-size="14.00">LikedMeModule</text>
</g>
<!-- LikedMeComponent&#45;&gt;LikedMeModule -->
<g id="edge1" class="edge">
<title>LikedMeComponent&#45;&gt;LikedMeModule</title>
<path fill="none" stroke="black" d="M226.95,-122.11C226.95,-122.11 226.95,-140.99 226.95,-140.99"/>
<polygon fill="black" stroke="black" points="223.45,-140.99 226.95,-150.99 230.45,-140.99 223.45,-140.99"/>
</g>
<!-- SharedModule -->
<g id="node3" class="node">
<title>SharedModule</title>
<polygon fill="#8dd3c7" stroke="black" points="375.42,-122 372.42,-126 351.42,-126 348.42,-122 276.58,-122 276.58,-86 375.42,-86 375.42,-122"/>
<text text-anchor="middle" x="326" y="-99.8" font-family="Times,serif" font-size="14.00">SharedModule</text>
</g>
<!-- SharedModule&#45;&gt;LikedMeModule -->
<g id="edge2" class="edge">
<title>SharedModule&#45;&gt;LikedMeModule</title>
<path fill="none" stroke="black" d="M294.11,-122.11C294.11,-122.11 294.11,-140.99 294.11,-140.99"/>
<polygon fill="black" stroke="black" points="290.61,-140.99 294.11,-150.99 297.61,-140.99 290.61,-140.99"/>
</g>
</g>
</svg>
