<?xml version="1.0" encoding="UTF-8" standalone="no"?>
<!DOCTYPE svg PUBLIC "-//W3C//DTD SVG 1.1//EN"
 "http://www.w3.org/Graphics/SVG/1.1/DTD/svg11.dtd">
<!-- Generated by graphviz version 2.47.0 (20210316.0004)
 -->
<!-- Title: dependencies Pages: 1 -->
<svg width="504pt" height="211pt"
 viewBox="0.00 0.00 504.00 211.00" xmlns="http://www.w3.org/2000/svg" xmlns:xlink="http://www.w3.org/1999/xlink">
<g id="graph0" class="graph" transform="scale(1 1) rotate(0) translate(4 207)">
<title>dependencies</title>
<polygon fill="white" stroke="transparent" points="-4,4 -4,-207 500,-207 500,4 -4,4"/>
<text text-anchor="start" x="227.01" y="-42.4" font-family="Times-12" font-weight="bold" font-size="14.00">Legend</text>
<polygon fill="#ffffb3" stroke="transparent" points="14,-10 14,-30 34,-30 34,-10 14,-10"/>
<text text-anchor="start" x="37.63" y="-15.4" font-family="Times-12" font-size="14.00"> &#160;Declarations</text>
<polygon fill="#8dd3c7" stroke="transparent" points="127,-10 127,-30 147,-30 147,-10 127,-10"/>
<text text-anchor="start" x="150.73" y="-15.4" font-family="Times-12" font-size="14.00"> &#160;Module</text>
<polygon fill="#80b1d3" stroke="transparent" points="213,-10 213,-30 233,-30 233,-10 213,-10"/>
<text text-anchor="start" x="236.78" y="-15.4" font-family="Times-12" font-size="14.00"> &#160;Bootstrap</text>
<polygon fill="#fdb462" stroke="transparent" points="310,-10 310,-30 330,-30 330,-10 310,-10"/>
<text text-anchor="start" x="333.67" y="-15.4" font-family="Times-12" font-size="14.00"> &#160;Providers</text>
<polygon fill="#fb8072" stroke="transparent" points="406,-10 406,-30 426,-30 426,-10 406,-10"/>
<text text-anchor="start" x="429.73" y="-15.4" font-family="Times-12" font-size="14.00"> &#160;Exports</text>
<g id="clust1" class="cluster">
<title>cluster_UserMatchsModule</title>
<polygon fill="none" stroke="black" stroke-dasharray="1,5" points="97,-70 97,-195 399,-195 399,-70 97,-70"/>
</g>
<g id="clust4" class="cluster">
<title>cluster_UserMatchsModule_imports</title>
<polygon fill="none" stroke="black" points="277,-78 277,-130 391,-130 391,-78 277,-78"/>
</g>
<g id="clust2" class="cluster">
<title>cluster_UserMatchsModule_declarations</title>
<polygon fill="none" stroke="black" points="105,-78 105,-130 269,-130 269,-78 105,-78"/>
</g>
<!-- UserMatchsComponent -->
<g id="node1" class="node">
<title>UserMatchsComponent</title>
<polygon fill="#ffffb3" stroke="black" points="261.47,-122 112.53,-122 112.53,-86 261.47,-86 261.47,-122"/>
<text text-anchor="middle" x="187" y="-99.8" font-family="Times,serif" font-size="14.00">UserMatchsComponent</text>
</g>
<!-- UserMatchsModule -->
<g id="node2" class="node">
<title>UserMatchsModule</title>
<polygon fill="#8dd3c7" stroke="black" points="320.69,-187 317.69,-191 296.69,-191 293.69,-187 193.31,-187 193.31,-151 320.69,-151 320.69,-187"/>
<text text-anchor="middle" x="257" y="-164.8" font-family="Times,serif" font-size="14.00">UserMatchsModule</text>
</g>
<!-- UserMatchsComponent&#45;&gt;UserMatchsModule -->
<g id="edge1" class="edge">
<title>UserMatchsComponent&#45;&gt;UserMatchsModule</title>
<path fill="none" stroke="black" d="M227.45,-122.11C227.45,-122.11 227.45,-140.99 227.45,-140.99"/>
<polygon fill="black" stroke="black" points="223.95,-140.99 227.45,-150.99 230.95,-140.99 223.95,-140.99"/>
</g>
<!-- SharedModule -->
<g id="node3" class="node">
<title>SharedModule</title>
<polygon fill="#8dd3c7" stroke="black" points="383.42,-122 380.42,-126 359.42,-126 356.42,-122 284.58,-122 284.58,-86 383.42,-86 383.42,-122"/>
<text text-anchor="middle" x="334" y="-99.8" font-family="Times,serif" font-size="14.00">SharedModule</text>
</g>
<!-- SharedModule&#45;&gt;UserMatchsModule -->
<g id="edge2" class="edge">
<title>SharedModule&#45;&gt;UserMatchsModule</title>
<path fill="none" stroke="black" d="M302.69,-122.11C302.69,-122.11 302.69,-140.99 302.69,-140.99"/>
<polygon fill="black" stroke="black" points="299.19,-140.99 302.69,-150.99 306.19,-140.99 299.19,-140.99"/>
</g>
</g>
</svg>
