<svg xmlns="http://www.w3.org/2000/svg" width="64.788" height="21.657" viewBox="0 0 64.788 21.657"><defs><style>.a{fill:#a6a6a6;}.b{fill:#fff;}</style></defs><g transform="translate(0 0)"><g transform="translate(0 0)"><path class="a" d="M59.629,0H4.57c-.166,0-.33,0-.5.007A7.155,7.155,0,0,0,2.987.1,3.609,3.609,0,0,0,1.958.443a3.486,3.486,0,0,0-.876.638,3.388,3.388,0,0,0-.638.878,3.574,3.574,0,0,0-.338,1.03,7.035,7.035,0,0,0-.1,1.084C0,4.239,0,4.406,0,4.572V17.086c0,.168,0,.331.008.5a7.034,7.034,0,0,0,.1,1.084A3.567,3.567,0,0,0,.444,19.7a3.361,3.361,0,0,0,.638.874,3.4,3.4,0,0,0,.876.638,3.628,3.628,0,0,0,1.029.342,7.284,7.284,0,0,0,1.085.1c.167,0,.332.006.5.006H60.216c.165,0,.334,0,.5-.006a7.189,7.189,0,0,0,1.083-.1,3.684,3.684,0,0,0,1.033-.342,3.4,3.4,0,0,0,.876-.638,3.463,3.463,0,0,0,.64-.874,3.576,3.576,0,0,0,.335-1.031,7.313,7.313,0,0,0,.1-1.084c0-.168,0-.331,0-.5,0-.2,0-.392,0-.592V5.163c0-.2,0-.395,0-.591,0-.166,0-.333,0-.5a7.311,7.311,0,0,0-.1-1.084,3.583,3.583,0,0,0-.335-1.03A3.5,3.5,0,0,0,62.831.443,3.664,3.664,0,0,0,61.8.1a7.062,7.062,0,0,0-1.083-.1c-.165,0-.334-.006-.5-.007h-.587Z" transform="translate(0 0)"/><path d="M4.972,21.584c-.165,0-.326,0-.49-.006a6.869,6.869,0,0,1-1.012-.088,3.186,3.186,0,0,1-.9-.3,2.927,2.927,0,0,1-.756-.55,2.881,2.881,0,0,1-.553-.756,3.1,3.1,0,0,1-.294-.9,6.721,6.721,0,0,1-.09-1.015c0-.114-.008-.494-.008-.494V4.973s0-.374.008-.484a6.7,6.7,0,0,1,.09-1.014,3.116,3.116,0,0,1,.294-.9,2.909,2.909,0,0,1,.55-.757,3.013,3.013,0,0,1,.759-.554,3.153,3.153,0,0,1,.9-.294A6.814,6.814,0,0,1,4.484.882L4.973.875h55.64l.494.007A6.705,6.705,0,0,1,62.114.97a3.215,3.215,0,0,1,.9.3,3.029,3.029,0,0,1,1.308,1.31,3.12,3.12,0,0,1,.29.893,7.036,7.036,0,0,1,.094,1.022c0,.153,0,.318,0,.482,0,.2,0,.4,0,.591V16.9c0,.2,0,.389,0,.582,0,.176,0,.337,0,.5a6.9,6.9,0,0,1-.093,1,3.107,3.107,0,0,1-.292.9,2.967,2.967,0,0,1-.55.75,2.931,2.931,0,0,1-.758.554,3.174,3.174,0,0,1-.9.3,6.791,6.791,0,0,1-1.012.088c-.159,0-.325.006-.486.006H4.972Z" transform="translate(-0.4 -0.401)"/><g transform="translate(5.399 4.721)"><path class="b" d="M17.983,17.4a2.679,2.679,0,0,1,1.276-2.248A2.743,2.743,0,0,0,17.1,13.983c-.909-.1-1.791.544-2.254.544s-1.186-.535-1.954-.519a2.878,2.878,0,0,0-2.422,1.477c-1.047,1.813-.266,4.477.737,5.943.5.718,1.088,1.519,1.856,1.491.751-.031,1.031-.479,1.938-.479s1.161.479,1.944.461c.806-.013,1.314-.721,1.8-1.445a5.935,5.935,0,0,0,.822-1.674A2.589,2.589,0,0,1,17.983,17.4Z" transform="translate(-9.972 -11.129)"/><path class="b" d="M20.548,10.61a2.638,2.638,0,0,0,.6-1.89,2.684,2.684,0,0,0-1.737.9,2.51,2.51,0,0,0-.619,1.82A2.219,2.219,0,0,0,20.548,10.61Z" transform="translate(-14.016 -8.72)"/><g transform="translate(13.241 4.954)"><path class="b" d="M38.691,22.984H36.128L35.513,24.8H34.427l2.427-6.723h1.128L40.41,24.8h-1.1Zm-2.3-.839h2.031l-1-2.949H37.4Z" transform="translate(-34.427 -17.966)"/><path class="b" d="M51.249,23.849c0,1.523-.815,2.5-2.046,2.5a1.662,1.662,0,0,1-1.542-.858h-.023v2.428H46.631V21.4h.974v.815h.019a1.739,1.739,0,0,1,1.561-.867C50.429,21.347,51.249,22.33,51.249,23.849Zm-1.034,0c0-.992-.513-1.645-1.3-1.645s-1.286.666-1.286,1.645S48.15,25.5,48.919,25.5s1.3-.648,1.3-1.649Z" transform="translate(-40.024 -19.465)"/><path class="b" d="M61.214,23.849c0,1.523-.815,2.5-2.046,2.5a1.662,1.662,0,0,1-1.542-.858H57.6v2.428H56.6V21.4h.974v.815h.019a1.739,1.739,0,0,1,1.561-.867C60.393,21.347,61.214,22.33,61.214,23.849Zm-1.034,0c0-.992-.513-1.645-1.3-1.645s-1.286.666-1.286,1.645.517,1.649,1.286,1.649,1.3-.648,1.3-1.649Z" transform="translate(-44.594 -19.465)"/><path class="b" d="M70.838,22.833c.075.667.722,1.1,1.607,1.1.848,0,1.458-.438,1.458-1.039,0-.522-.368-.834-1.239-1.048l-.871-.21c-1.235-.3-1.808-.876-1.808-1.812,0-1.16,1.011-1.957,2.446-1.957a2.15,2.15,0,0,1,2.427,1.957H73.843c-.061-.671-.615-1.076-1.426-1.076s-1.365.41-1.365,1.006c0,.475.354.755,1.221.969l.741.182c1.379.326,1.953.88,1.953,1.864,0,1.258-1,2.046-2.6,2.046-1.491,0-2.5-.769-2.563-1.985Z" transform="translate(-50.652 -17.871)"/><path class="b" d="M81.886,19.3v1.16h.932v.8h-.932v2.7c0,.42.187.615.6.615a3.143,3.143,0,0,0,.331-.023v.792a2.763,2.763,0,0,1-.559.047c-.992,0-1.379-.373-1.379-1.323v-2.81h-.713v-.8h.713V19.3Z" transform="translate(-55.401 -18.526)"/><path class="b" d="M86.065,23.842a2.332,2.332,0,1,1,4.65,0,2.332,2.332,0,1,1-4.65,0Zm3.625,0c0-1.058-.485-1.682-1.3-1.682s-1.3.629-1.3,1.682.484,1.682,1.3,1.682,1.3-.62,1.3-1.682Z" transform="translate(-58.108 -19.458)"/><path class="b" d="M96.186,21.4h.96v.834h.023a1.169,1.169,0,0,1,1.179-.886,1.552,1.552,0,0,1,.345.038v.941a1.407,1.407,0,0,0-.452-.061,1.014,1.014,0,0,0-1.048,1.128V26.3H96.186Z" transform="translate(-62.749 -19.465)"/><path class="b" d="M105.639,24.853a1.967,1.967,0,0,1-2.111,1.5,2.231,2.231,0,0,1-2.311-2.488,2.261,2.261,0,0,1,2.269-2.535,2.158,2.158,0,0,1,2.209,2.418v.345h-3.462v.061a1.277,1.277,0,0,0,1.319,1.388,1.109,1.109,0,0,0,1.132-.689Zm-3.4-1.463h2.451a1.179,1.179,0,0,0-1.2-1.244,1.241,1.241,0,0,0-1.248,1.244Z" transform="translate(-65.056 -19.458)"/></g></g></g><g transform="translate(19.313 4.469)"><path class="b" d="M35.671,11.962V8.731h1.3c.607,0,.972.309.972.806a.708.708,0,0,1-.566.694v.038a.764.764,0,0,1,.728.777c0,.569-.414.916-1.1.916Zm.5-1.863h.6c.444,0,.674-.163.674-.47s-.217-.472-.589-.472h-.68Zm.725,1.437c.452,0,.692-.184.692-.526s-.249-.515-.721-.515h-.7v1.041Z" transform="translate(-35.671 -8.472)"/><path class="b" d="M41.114,11.9c0-.439.327-.692.907-.728l.66-.038v-.21c0-.257-.17-.4-.5-.4-.269,0-.455.1-.508.271h-.466c.049-.419.443-.687,1-.687.611,0,.956.3.956.819v1.666H42.7V12.25h-.038a.82.82,0,0,1-.732.383.736.736,0,0,1-.813-.73Zm1.567-.208v-.2l-.6.038c-.336.022-.488.137-.488.352s.19.347.452.347a.575.575,0,0,0,.631-.533Z" transform="translate(-38.167 -9.104)"/><path class="b" d="M46.169,8.584a.312.312,0,1,1,.311.293.3.3,0,0,1-.311-.293Zm.071.721h.48v2.438h-.48Z" transform="translate(-40.485 -8.253)"/><path class="b" d="M49.332,11.769l-.533.864h-.528l.808-1.213-.815-1.225h.562l.524.86h.038l.519-.86h.535l-.8,1.2.813,1.234H49.9l-.531-.864Z" transform="translate(-41.446 -9.144)"/><path class="b" d="M53.088,11.9c0-.439.327-.692.907-.728l.66-.038v-.21c0-.257-.17-.4-.5-.4-.269,0-.455.1-.508.271h-.466c.049-.419.443-.687,1-.687.611,0,.956.3.956.819v1.666h-.463V12.25h-.038a.82.82,0,0,1-.732.383.736.736,0,0,1-.813-.73Zm1.567-.208v-.2l-.6.038c-.336.022-.488.137-.488.352s.19.347.452.347a.575.575,0,0,0,.631-.533Z" transform="translate(-43.658 -9.104)"/><path class="b" d="M58.259,10.159h.463v.374h.036a.661.661,0,0,1,.658-.414,1.012,1.012,0,0,1,.215.02v.475a1.318,1.318,0,0,0-.269-.029.571.571,0,0,0-.622.573V12.6h-.481Z" transform="translate(-46.029 -9.108)"/><path class="b" d="M64.218,10.153h.463v.387h.036a.73.73,0,0,1,.728-.434.793.793,0,0,1,.844.907v1.578h-.481V11.133c0-.392-.17-.587-.526-.587a.559.559,0,0,0-.582.618v1.426h-.481Z" transform="translate(-48.762 -9.102)"/><path class="b" d="M69.161,11.9c0-.439.327-.692.907-.728l.66-.038v-.21c0-.257-.17-.4-.5-.4-.269,0-.455.1-.508.271h-.466c.049-.419.443-.687,1-.687.611,0,.956.3.956.819v1.666h-.463V12.25h-.038a.82.82,0,0,1-.732.383.736.736,0,0,1-.813-.73Zm1.567-.208v-.2l-.6.038c-.336.022-.488.137-.488.352s.19.347.452.347a.575.575,0,0,0,.631-.533Z" transform="translate(-51.029 -9.104)"/></g></g></svg>