<svg xmlns="http://www.w3.org/2000/svg" width="54.762" height="50" viewBox="0 0 54.762 50"><defs><style>.a{fill:#909090;}</style></defs><path class="a" d="M7.143,8.143V1H11.9V8.143h7.143V12.9H11.9v7.143H7.143V12.9H0V8.143Zm7.143,14.286V15.286h7.143V8.143H38.1L42.452,12.9H50a4.776,4.776,0,0,1,4.762,4.762V46.238A4.776,4.776,0,0,1,50,51H11.9a4.776,4.776,0,0,1-4.762-4.762V22.429ZM30.952,43.857a11.9,11.9,0,1,0-11.9-11.9A11.909,11.909,0,0,0,30.952,43.857Zm-7.619-11.9a7.619,7.619,0,1,0,7.619-7.619A7.611,7.611,0,0,0,23.333,31.952Z" transform="translate(0 -1)"/></svg>