<svg xmlns="http://www.w3.org/2000/svg" width="30.013" height="30" viewBox="0 0 30.013 30">
  <g id="logo-instagram" transform="translate(-200.537 -59.628)">
    <g id="Grupo_27" data-name="Grupo 27" transform="translate(221.804 64.846)">
      <path id="Caminho_54" data-name="Caminho 54" d="M224.3,65.016h.021a1.786,1.786,0,0,1,1.782,1.807,1.819,1.819,0,0,1-1.821,1.8,1.8,1.8,0,0,1,.017-3.6Z" transform="translate(-222.497 -65.016)" fill="#7d7b78"/>
    </g>
    <g id="Grupo_28" data-name="Grupo 28" transform="translate(200.537 59.628)">
      <path id="Caminho_55" data-name="Caminho 55" d="M230.367,67.159c.223,2.361.367,13.519-.327,16.134a7.68,7.68,0,0,1-6.625,6,74.167,74.167,0,0,1-8.277.334,50.99,50.99,0,0,1-8.338-.443,7.527,7.527,0,0,1-5.974-6.543c-.4-2.531-.445-14.291.285-16.845a7.653,7.653,0,0,1,6.539-5.832,58.479,58.479,0,0,1,7.52-.338c2.8,0,5.626.077,7.326.169a8.268,8.268,0,0,1,5.477,2.241A7.9,7.9,0,0,1,230.367,67.159Zm-2.886,14.989a107.571,107.571,0,0,0,.185-14.737,5.047,5.047,0,0,0-4.493-4.783,68.766,68.766,0,0,0-7.5-.284c-2.988,0-5.962.081-7.27.223a5.142,5.142,0,0,0-4.794,4.519,102.288,102.288,0,0,0-.1,15.146,4.865,4.865,0,0,0,3.7,4.241,46.442,46.442,0,0,0,8.07.444c3.147,0,6.238-.1,7.4-.227a5.122,5.122,0,0,0,4.805-4.542" transform="translate(-200.537 -59.628)" fill="#7d7b78"/>
    </g>
    <g id="Grupo_29" data-name="Grupo 29" transform="translate(207.849 66.942)">
      <path id="Caminho_56" data-name="Caminho 56" d="M215.846,67.181a7.625,7.625,0,0,1,7.629,7.7,7.767,7.767,0,0,1-7.758,7.687,7.618,7.618,0,0,1-7.629-7.7A7.752,7.752,0,0,1,215.846,67.181Zm-.111,12.664a5.025,5.025,0,0,0,5.017-4.928,4.926,4.926,0,0,0-4.891-5.025h-.045A5.025,5.025,0,0,0,210.8,74.82a4.932,4.932,0,0,0,4.89,5.024h.046" transform="translate(-208.088 -67.181)" fill="#7d7b78"/>
    </g>
  </g>
</svg>
