<svg xmlns="http://www.w3.org/2000/svg" xmlns:xlink="http://www.w3.org/1999/xlink" width="200" height="58.523" viewBox="0 0 200 58.523">
  <defs>
    <clipPath id="clip-path">
      <rect id="Retângulo_8" data-name="Retângulo 8" width="200" height="58.523" fill="none"/>
    </clipPath>
  </defs>
  <g id="logo-raposo-shopping" clip-path="url(#clip-path)">
    <path id="Caminho_4" data-name="Caminho 4" d="M62.215,38.47l-1.588-.176c-2.529-.294-3.293-1.176-5-6.234L47.57,8.416c-.882-2.588-1.823-5.293-2.588-7.881A.833.833,0,0,0,44.1.006a6.6,6.6,0,0,1-3.058,2.235c.176.941-.176,2.058-1,4.176l-6,15.879c-2,5.328-3.457,8.849-4.5,11.431A107.718,107.718,0,0,1,21.562,22c-.291-.471-.585-1.059-.291-1.412,2.941-1.176,7.352-4.235,7.352-9.822A8.763,8.763,0,0,0,23.74,2.535C21.032,1.065,17.565.771,13.916.771,8.152.771,4.094.947.8,1.241a.982.982,0,0,0-.059,1.47l1.882.235c2.411.294,2.588,1.294,2.588,6.881V30.942c0,6.175-.118,6.94-3.529,7.352l-1.47.176A1.133,1.133,0,0,0,.33,39.94c2.764-.118,4.881-.176,7.354-.176,2.35,0,4.349.059,7,.176a1.15,1.15,0,0,0,.12-1.47l-1.235-.176c-3.414-.47-3.531-1.176-3.531-7.352v-7.41c0-1.235.118-1.294,2.767-1.294,2.35,0,3.293.588,4.176,1.882,1.823,2.647,4.235,6.7,5.764,8.881a24.436,24.436,0,0,0,4.221,4.833A10.556,10.556,0,0,0,30.4,39.787a14.02,14.02,0,0,0,4.515.623,9.154,9.154,0,0,0,2.588-.294.492.492,0,0,0-.059-.823,7.339,7.339,0,0,1-1.775-.358,6.858,6.858,0,0,1-1.24-.553,6.154,6.154,0,0,1-1.043-.735c-.521-.436-1.027-.9-1.521-1.379a39.606,39.606,0,0,1,1.179-4.031L35.1,26.06c.412-1.235.765-1.412,2.235-1.412h8.881c1.764,0,2,.176,2.411,1.47l2.588,8a12.052,12.052,0,0,1,.765,3.117c0,.588-.823.941-2.058,1.059l-1.706.176a.986.986,0,0,0,.118,1.47c1.706-.059,3.94-.176,6.763-.176,2.647,0,4.705.059,7.116.176a1.153,1.153,0,0,0,0-1.47M20.329,18.944a9.858,9.858,0,0,1-6.058,1.529c-3,0-3.884-.118-4.058-.294a4.565,4.565,0,0,1-.179-1.941V4.476c0-1.647.179-1.882,3.826-1.882,6.528,0,9.41,4.411,9.41,9.057,0,4-1.353,6.058-2.941,7.293M45.453,22.3H38.219c-1.647,0-1.706-.059-1.235-1.412l3.705-10.233A35.843,35.843,0,0,1,42.1,7.181h.118a38.765,38.765,0,0,1,1.353,3.705l3.176,9.586c.529,1.588.412,1.823-1.294,1.823" transform="translate(0 -0.005)" fill="#fff"/>
    <path id="Caminho_5" data-name="Caminho 5" d="M567.174,36.726c0,6.175.118,6.94,3.882,7.352l1.588.176a1.15,1.15,0,0,1-.118,1.47c-3.352-.118-5.293-.176-7.646-.176-2.47,0-4.587.059-7.175.176a1.142,1.142,0,0,1-.118-1.47l1.235-.176c3.411-.471,3.529-1.176,3.529-7.352v-21.7c0-5-.118-6.058-2.764-6.293L557.47,8.5a.982.982,0,0,1,.118-1.47,92.725,92.725,0,0,1,11.645-.471c4.881,0,8.528.647,11.292,2.353a10.161,10.161,0,0,1,4.705,8.822,9.968,9.968,0,0,1-5.881,9.351,19.853,19.853,0,0,1-8.116,1.764c-.412-.176-.412-1.059-.059-1.176,6.352-1.176,8.646-4.764,8.646-9.881,0-5.7-3.352-9.41-9.469-9.41-3.117,0-3.176.235-3.176,2.117Z" transform="translate(-492.21 -5.791)" fill="#fff"/>
    <path id="Caminho_6" data-name="Caminho 6" d="M795.555,20.761C795.555,9,804.377,0,816.492,0,830.078,0,836.9,9.822,836.9,20.173A20.08,20.08,0,0,1,816.492,40.7c-13.057,0-20.937-9.351-20.937-19.938M831.02,22c0-9.7-4.294-20.173-15.527-20.173-6.117,0-14.057,4.176-14.057,17.056,0,8.7,4.235,20,15.821,20,7.058,0,13.763-5.293,13.763-16.879" transform="translate(-702.771)" fill="#fff"/>
    <path id="Caminho_7" data-name="Caminho 7" d="M1163.347,40.7a18.356,18.356,0,0,1-9.175-2.176c-.706-1.294-1.47-5.47-1.588-8.234.294-.412,1.176-.529,1.411-.176.882,3,3.293,8.763,10.116,8.763,4.94,0,7.352-3.235,7.352-6.764,0-2.588-.529-5.47-4.823-8.234l-5.587-3.646c-2.941-1.941-6.352-5.293-6.352-10.116,0-5.587,4.352-10.116,12-10.116a20.143,20.143,0,0,1,5.47.764,11.573,11.573,0,0,0,2.058.353,25.723,25.723,0,0,1,1.059,7.175c-.235.353-1.177.529-1.47.176-.765-2.823-2.353-6.646-8-6.646-5.764,0-7,3.823-7,6.528,0,3.411,2.823,5.822,5,7.234l4.705,2.941c3.705,2.294,7.352,5.7,7.352,11.292,0,6.469-4.881,10.88-12.527,10.88" transform="translate(-1018.16)" fill="#fff"/>
    <path id="Caminho_8" data-name="Caminho 8" d="M1360.344,20.761C1360.344,9,1369.166,0,1381.281,0c13.586,0,20.408,9.822,20.408,20.173A20.08,20.08,0,0,1,1381.281,40.7c-13.056,0-20.937-9.351-20.937-19.938M1395.808,22c0-9.7-4.293-20.173-15.527-20.173-6.117,0-14.056,4.176-14.056,17.056,0,8.7,4.234,20,15.821,20,7.057,0,13.762-5.293,13.762-16.879" transform="translate(-1201.69)" fill="#fff"/>
    <path id="Caminho_9" data-name="Caminho 9" d="M3.178,410.777a5.417,5.417,0,0,1-2.709-.642A8.011,8.011,0,0,1,0,407.7c.087-.122.347-.156.417-.052A3.159,3.159,0,0,0,3.4,410.239a1.972,1.972,0,0,0,2.171-2,2.609,2.609,0,0,0-1.424-2.431L2.5,404.735a3.7,3.7,0,0,1-1.875-2.987c0-1.65,1.285-2.987,3.543-2.987a5.947,5.947,0,0,1,1.615.226,3.424,3.424,0,0,0,.608.1,7.6,7.6,0,0,1,.313,2.119c-.07.1-.347.156-.434.052A2.275,2.275,0,0,0,3.907,399.3a1.819,1.819,0,0,0-2.066,1.927,2.759,2.759,0,0,0,1.476,2.136l1.389.868a3.911,3.911,0,0,1,2.171,3.334c0,1.91-1.441,3.212-3.7,3.212" transform="translate(0 -352.254)" fill="#fff"/>
    <path id="Caminho_10" data-name="Caminho 10" d="M213.328,406.6c-.833,0-.868.035-.868.556V409.6c0,1.823.087,2.066,1.059,2.17l.5.052c.1.07.07.382-.035.434-.938-.035-1.528-.052-2.205-.052-.747,0-1.337.035-2.014.052a.337.337,0,0,1-.035-.434l.3-.052c.972-.174,1.007-.347,1.007-2.17v-6.251c0-1.823-.122-2.119-1.024-2.188l-.452-.035c-.1-.069-.069-.382.035-.434.851.017,1.441.052,2.188.052.677,0,1.268-.017,2.014-.052.1.052.139.365.035.434l-.33.035c-1.007.1-1.042.365-1.042,2.188v2c0,.538.035.556.868.556h4.966c.834,0,.868-.018.868-.556v-2c0-1.823-.035-2.084-1.059-2.188l-.33-.035c-.1-.069-.069-.382.035-.434.8.035,1.389.052,2.1.052.677,0,1.268-.017,2.049-.052.1.052.139.365.035.434l-.365.035c-1.007.1-1.042.365-1.042,2.188V409.6c0,1.823.035,2.049,1.042,2.17l.417.052c.1.07.069.382-.035.434-.834-.035-1.424-.052-2.1-.052-.712,0-1.337.018-2.1.052a.338.338,0,0,1-.035-.434l.33-.052c1.059-.139,1.024-.347,1.059-2.17v-2.448c0-.521-.035-.556-.868-.556Z" transform="translate(-185.064 -353.964)" fill="#fff"/>
    <path id="Caminho_11" data-name="Caminho 11" d="M468.165,404.89a6,6,0,0,1,6.182-6.13,5.716,5.716,0,0,1,6.025,5.956,5.929,5.929,0,0,1-6.025,6.06,5.847,5.847,0,0,1-6.182-5.887m10.471.365c0-2.865-1.268-5.956-4.584-5.956-1.806,0-4.15,1.233-4.15,5.036,0,2.57,1.25,5.9,4.671,5.9,2.084,0,4.063-1.563,4.063-4.984" transform="translate(-413.564 -352.253)" fill="#fff"/>
    <path id="Caminho_12" data-name="Caminho 12" d="M726.318,409.6c0,1.823.035,2.049,1.146,2.17l.469.052a.34.34,0,0,1-.035.434c-.99-.035-1.563-.052-2.257-.052-.729,0-1.354.018-2.118.052a.337.337,0,0,1-.035-.434l.365-.052c1.007-.139,1.042-.347,1.042-2.17V403.2c0-1.476-.035-1.788-.816-1.858l-.625-.069a.29.29,0,0,1,.035-.434,27.335,27.335,0,0,1,3.438-.139,6.272,6.272,0,0,1,3.334.695,3,3,0,0,1,1.389,2.6,2.943,2.943,0,0,1-1.737,2.761,5.861,5.861,0,0,1-2.4.521c-.122-.052-.122-.313-.017-.348a2.7,2.7,0,0,0,2.552-2.917,2.561,2.561,0,0,0-2.8-2.778c-.92,0-.938.069-.938.625Z" transform="translate(-639.006 -353.964)" fill="#fff"/>
    <path id="Caminho_13" data-name="Caminho 13" d="M947.827,409.6c0,1.823.035,2.049,1.146,2.17l.469.052a.34.34,0,0,1-.035.434c-.99-.035-1.563-.052-2.257-.052-.729,0-1.354.018-2.118.052a.337.337,0,0,1-.035-.434l.365-.052c1.007-.139,1.042-.347,1.042-2.17V403.2c0-1.476-.035-1.788-.816-1.858l-.625-.069a.29.29,0,0,1,.035-.434,27.337,27.337,0,0,1,3.438-.139,6.271,6.271,0,0,1,3.334.695,3,3,0,0,1,1.389,2.6,2.943,2.943,0,0,1-1.737,2.761,5.862,5.862,0,0,1-2.4.521c-.122-.052-.122-.313-.017-.348a2.7,2.7,0,0,0,2.553-2.917,2.561,2.561,0,0,0-2.8-2.778c-.92,0-.937.069-.937.625Z" transform="translate(-834.681 -353.964)" fill="#fff"/>
    <path id="Caminho_14" data-name="Caminho 14" d="M1167.946,403.388c0-1.841-.035-2.136-1.059-2.223l-.434-.035c-.1-.069-.069-.382.035-.434.868.035,1.458.052,2.188.052.694,0,1.285-.017,2.153-.052.1.052.139.365.035.434l-.434.035c-1.025.087-1.059.382-1.059,2.223v6.182c0,1.841.035,2.084,1.059,2.205l.434.052c.1.07.069.382-.035.434-.868-.035-1.459-.052-2.153-.052-.729,0-1.32.018-2.188.052a.338.338,0,0,1-.035-.434l.434-.052c1.024-.122,1.059-.365,1.059-2.205Z" transform="translate(-1030.356 -353.964)" fill="#fff"/>
    <path id="Caminho_15" data-name="Caminho 15" d="M1367.028,409.257c0,.521,0,2.587.052,3.039a.313.313,0,0,1-.33.191c-.208-.3-.712-.9-2.223-2.622l-4.028-4.584c-.469-.538-1.65-1.962-2.014-2.344h-.035a4.406,4.406,0,0,0-.087,1.129v3.786a14.368,14.368,0,0,0,.312,3.594,1.175,1.175,0,0,0,.886.33l.538.052a.318.318,0,0,1-.035.434c-.781-.035-1.389-.052-2.032-.052-.729,0-1.2.018-1.806.052a.322.322,0,0,1-.035-.434l.469-.052c.4-.035.677-.156.764-.347a16.771,16.771,0,0,0,.226-3.577v-5.019a1.593,1.593,0,0,0-.382-1.25,1.885,1.885,0,0,0-1.077-.417l-.3-.035a.3.3,0,0,1,.035-.434c.729.052,1.65.052,1.962.052a5.608,5.608,0,0,0,.8-.052,24.929,24.929,0,0,0,2.969,3.82l1.684,1.893c1.181,1.354,2.049,2.309,2.865,3.143h.035a1.749,1.749,0,0,0,.07-.73v-3.716a12.214,12.214,0,0,0-.347-3.594c-.1-.156-.382-.261-1.077-.347l-.3-.035c-.121-.1-.1-.382.035-.434.8.035,1.389.052,2.049.052.747,0,1.2-.017,1.788-.052a.305.305,0,0,1,.035.434l-.243.035c-.555.087-.9.226-.972.365a14.005,14.005,0,0,0-.26,3.577Z" transform="translate(-1197.696 -353.964)" fill="#fff"/>
    <path id="Caminho_16" data-name="Caminho 16" d="M1626.18,408.728c0,.695.1,1.111.417,1.233a.143.143,0,0,1-.017.208,3.888,3.888,0,0,0-.851.156,13.58,13.58,0,0,1-3.109.451,7.237,7.237,0,0,1-5.3-1.927,5.467,5.467,0,0,1-1.6-3.942,5.958,5.958,0,0,1,1.563-4.115,7.19,7.19,0,0,1,5.5-2.032,10.393,10.393,0,0,1,2.205.26,4.582,4.582,0,0,0,1.077.157,19.505,19.505,0,0,0,.261,2.518c-.052.139-.365.156-.469.052-.486-1.875-1.789-2.466-3.56-2.466-3.369,0-4.845,2.4-4.845,5,0,3.334,1.719,5.956,5.209,5.956,1.077,0,1.719-.226,1.91-.521a1.936,1.936,0,0,0,.174-.99v-.694c0-1.459-.052-1.563-1.129-1.685l-.764-.087a.29.29,0,0,1,0-.434c.5.035,1.459.052,2.483.052.677,0,1.268-.017,1.841-.052a.3.3,0,0,1,.018.434l-.278.035c-.729.087-.747.573-.747,1.459Z" transform="translate(-1427.287 -352.254)" fill="#fff"/>
  </g>
</svg>
