<svg xmlns="http://www.w3.org/2000/svg" width="15.777" height="30" viewBox="0 0 15.777 30">
  <g id="logo-facebook" transform="translate(-47.682 -57.969)">
    <path id="Caminho_53" data-name="Caminho 53" d="M59.515,57.969c.8,0,1.61.044,2.41.08.522.021,1.044.1,1.534.149l-.037,4.831h-.384c-.53,0-1.06-.007-1.59-.007-.4,0-.8,0-1.193.017-1.28.043-2.222.523-2.287,2.122-.041,1.152-.07,3.695-.072,3.828.067,0,1.332,0,2.6,0,.637,0,1.259,0,1.693,0h1.034c-.26,1.855-.5,3.635-.756,5.428H57.9l-.1,13.552H52.174l.1-13.574h-4.6l.041-5.4h4.618l0-.405c.009-1.088,0-2.175.036-3.263a13.491,13.491,0,0,1,.176-2.069,6.139,6.139,0,0,1,2.461-4.031,7.068,7.068,0,0,1,4.051-1.258Q59.291,57.969,59.515,57.969Z" fill="#7d7b78"/>
  </g>
</svg>
