<svg xmlns="http://www.w3.org/2000/svg" width="42.823" height="30" viewBox="0 0 42.823 30">
  <g id="logo-youtube" transform="translate(-200.024 -213.109)">
    <path id="Caminho_57" data-name="Caminho 57" d="M241.761,217c1.534,4.043,1.471,18.77-.372,22.664a5.162,5.162,0,0,1-2.331,2.346c-1.444.745-9.822,1.1-18.03,1.1-7.555,0-14.966-.3-16.7-.865a4.957,4.957,0,0,1-3.27-3.2c-1.386-3.911-1.693-20.285,1.078-23.512a5.351,5.351,0,0,1,3.592-1.9c3.293-.356,9.644-.53,15.909-.53,7.8,0,15.466.27,16.92.8A5.046,5.046,0,0,1,241.761,217Zm-25.644,17.571c4.444-2.312,8.871-4.593,13.349-6.905-4.442-2.33-8.834-4.626-13.243-6.939-.035,4.625-.07,9.2-.106,13.844" transform="translate(0 0)" fill="#7d7b78"/>
  </g>
</svg>
