<svg xmlns="http://www.w3.org/2000/svg" xmlns:xlink="http://www.w3.org/1999/xlink" width="73.091" height="21.657" viewBox="0 0 73.091 21.657"><defs><style>.a{fill:#a6a6a6;}.b,.i,.j{fill:#fff;}.c{fill:url(#a);}.d{fill:url(#b);}.e{fill:url(#c);}.f{fill:url(#d);}.g{opacity:0.2;}.h{opacity:0.12;}.i{opacity:0.25;}.j{stroke:#fff;stroke-miterlimit:10;stroke-width:0.2px;}</style><linearGradient id="a" x1="0.915" y1="6.632" x2="-0.376" y2="5.96" gradientUnits="objectBoundingBox"><stop offset="0" stop-color="#00a0ff"/><stop offset="0.007" stop-color="#00a1ff"/><stop offset="0.26" stop-color="#00beff"/><stop offset="0.512" stop-color="#00d2ff"/><stop offset="0.76" stop-color="#00dfff"/><stop offset="1" stop-color="#00e3ff"/></linearGradient><linearGradient id="b" x1="1.077" y1="17.2" x2="-1.307" y2="17.2" gradientUnits="objectBoundingBox"><stop offset="0" stop-color="#ffe000"/><stop offset="0.409" stop-color="#ffbd00"/><stop offset="0.775" stop-color="orange"/><stop offset="1" stop-color="#ff9c00"/></linearGradient><linearGradient id="c" x1="0.864" y1="10.839" x2="-0.499" y2="9.074" gradientUnits="objectBoundingBox"><stop offset="0" stop-color="#ff3a44"/><stop offset="1" stop-color="#c31162"/></linearGradient><linearGradient id="d" x1="-0.186" y1="13.614" x2="0.423" y2="12.822" gradientUnits="objectBoundingBox"><stop offset="0" stop-color="#32a071"/><stop offset="0.068" stop-color="#2da771"/><stop offset="0.476" stop-color="#15cf74"/><stop offset="0.801" stop-color="#06e775"/><stop offset="1" stop-color="#00f076"/></linearGradient></defs><g transform="translate(0 0)"><g transform="translate(0 0)"><path d="M80.384,31.657H12.707A2.715,2.715,0,0,1,10,28.949V12.707A2.715,2.715,0,0,1,12.707,10H80.384a2.715,2.715,0,0,1,2.707,2.707V28.949A2.715,2.715,0,0,1,80.384,31.657Z" transform="translate(-10 -10)"/><path class="a" d="M80.384,10.433a2.288,2.288,0,0,1,2.274,2.274V28.949a2.288,2.288,0,0,1-2.274,2.274H12.707a2.288,2.288,0,0,1-2.274-2.274V12.707a2.288,2.288,0,0,1,2.274-2.274H80.384m0-.433H12.707A2.715,2.715,0,0,0,10,12.707V28.949a2.715,2.715,0,0,0,2.707,2.707H80.384a2.715,2.715,0,0,0,2.707-2.707V12.707A2.715,2.715,0,0,0,80.384,10Z" transform="translate(-10 -10)"/><path class="b" d="M65.718,29.645a2.278,2.278,0,0,0-2.328,2.328A2.311,2.311,0,0,0,65.718,34.3a2.278,2.278,0,0,0,2.328-2.328A2.246,2.246,0,0,0,65.718,29.645Zm0,3.682a1.412,1.412,0,0,1,0-2.815,1.312,1.312,0,0,1,1.3,1.408A1.344,1.344,0,0,1,65.718,33.326Zm-5.035-3.682a2.278,2.278,0,0,0-2.328,2.328A2.311,2.311,0,0,0,60.683,34.3a2.278,2.278,0,0,0,2.328-2.328A2.246,2.246,0,0,0,60.683,29.645Zm0,3.682a1.412,1.412,0,0,1,0-2.815,1.312,1.312,0,0,1,1.3,1.408A1.344,1.344,0,0,1,60.683,33.326Zm-6.01-2.978v.975H57a2.047,2.047,0,0,1-.541,1.245,2.4,2.4,0,0,1-1.787.7,2.521,2.521,0,0,1-2.545-2.6,2.554,2.554,0,0,1,2.545-2.6,2.685,2.685,0,0,1,1.787.7l.7-.7a3.469,3.469,0,0,0-2.436-.975,3.574,3.574,0,1,0,0,7.147,3.116,3.116,0,0,0,2.491-1.029,3.259,3.259,0,0,0,.866-2.274,2.03,2.03,0,0,0-.054-.6H54.673Zm24.58.758A2.1,2.1,0,0,0,77.3,29.645a2.181,2.181,0,0,0-2.166,2.328A2.266,2.266,0,0,0,77.413,34.3a2.221,2.221,0,0,0,1.895-1.029l-.758-.541a1.32,1.32,0,0,1-1.137.65,1.175,1.175,0,0,1-1.137-.7l3.086-1.3Zm-3.14.758A1.315,1.315,0,0,1,77.3,30.511a.958.958,0,0,1,.866.487Zm-2.545,2.22H74.6V27.317H73.569Zm-1.624-3.952h0a1.783,1.783,0,0,0-1.245-.541,2.326,2.326,0,0,0-2.22,2.328,2.242,2.242,0,0,0,2.22,2.274,1.555,1.555,0,0,0,1.191-.541h.054v.325a1.231,1.231,0,0,1-2.382.541L68.7,34.9a2.234,2.234,0,0,0,2.057,1.354,2.084,2.084,0,0,0,2.166-2.382V29.753h-.975v.379Zm-1.191,3.194a1.412,1.412,0,0,1,0-2.815,1.418,1.418,0,0,1,0,2.815Zm13.21-6.01H81.527v6.768h1.029V31.54h1.408a2.114,2.114,0,1,0,0-4.223Zm.054,3.248H82.556V28.237h1.462a1.189,1.189,0,0,1,1.191,1.137A1.239,1.239,0,0,1,84.018,30.565Zm6.226-.975a1.82,1.82,0,0,0-1.787,1.029l.92.379a.956.956,0,0,1,.92-.487,1.017,1.017,0,0,1,1.083.866v.054a2.148,2.148,0,0,0-1.029-.271c-.975,0-1.949.541-1.949,1.516a1.586,1.586,0,0,0,1.678,1.516,1.524,1.524,0,0,0,1.3-.65h.054v.541h.975v-2.6A2.049,2.049,0,0,0,90.244,29.591Zm-.108,3.736c-.325,0-.812-.162-.812-.6,0-.541.6-.7,1.083-.7a2.094,2.094,0,0,1,.92.217A1.261,1.261,0,0,1,90.136,33.326Zm5.685-3.573-1.137,2.924H94.63l-1.191-2.924H92.356l1.787,4.115-1.029,2.274h1.029L96.9,29.753Zm-9.1,4.331h1.029V27.317H86.725Z" transform="translate(-28.848 -17.842)"/><g transform="translate(5.36 3.881)"><path class="c" d="M20.171,17.5a1.071,1.071,0,0,0-.271.758V30.223a1.071,1.071,0,0,0,.271.758l.054.054,6.714-6.714v-.108L20.171,17.5Z" transform="translate(-19.9 -17.32)"/><path class="d" d="M35.12,30.4l-2.22-2.22V28.02l2.22-2.22.054.054,2.653,1.516a.826.826,0,0,1,0,1.57L35.12,30.4Z" transform="translate(-25.862 -21.126)"/><path class="e" d="M29.442,32.274,27.168,30,20.4,36.768c.271.271.65.271,1.137.054l7.9-4.548" transform="translate(-20.129 -23.052)"/><path class="f" d="M29.442,21.843l-7.9-4.494A.878.878,0,0,0,20.4,17.4l6.768,6.714Z" transform="translate(-20.129 -17.169)"/><g transform="translate(0.054 9.167)"><path class="g" d="M29.387,34.1l-7.851,4.44a.885.885,0,0,1-1.083,0h0l-.054.054h0l.054.054h0a.885.885,0,0,0,1.083,0L29.387,34.1Z" transform="translate(-20.183 -34.1)"/><path class="h" d="M20.217,41.658A1.058,1.058,0,0,1,20,40.9v.054a1.071,1.071,0,0,0,.271.758v-.054Z" transform="translate(-20 -37.218)"/></g><path class="h" d="M39.707,30.7,37,32.22l.054.054,2.653-1.516A.9.9,0,0,0,40.248,30h0C40.248,30.271,40.032,30.487,39.707,30.7Z" transform="translate(-27.742 -23.052)"/><path class="i" d="M21.354,17.4l10.558,6.01c.325.217.541.433.541.7h0a.9.9,0,0,0-.541-.758l-10.558-6.01C20.6,16.914,20,17.293,20,18.16v.054C20,17.348,20.6,16.969,21.354,17.4Z" transform="translate(-19.946 -17.168)"/></g></g><g transform="translate(22.36 2.924)"><path class="j" d="M51.3,20.248V17h.975a1.685,1.685,0,0,1,1.191.433,1.551,1.551,0,0,1,.433,1.191,1.784,1.784,0,0,1-.433,1.191,1.551,1.551,0,0,1-1.191.433Zm.433-.379h.6a1.143,1.143,0,0,0,.866-.325,1.466,1.466,0,0,0,0-1.841,1.23,1.23,0,0,0-.866-.325h-.6Z" transform="translate(-51.3 -16.134)"/><path class="j" d="M57.3,20.248V17h.433v3.248Z" transform="translate(-54.052 -16.134)"/><path class="j" d="M60.137,20.211a1.191,1.191,0,0,1-.7-.217,1.078,1.078,0,0,1-.433-.65l.379-.162a1.179,1.179,0,0,0,.271.433.812.812,0,0,0,.975,0,.548.548,0,0,0,.217-.379.492.492,0,0,0-.217-.433,1.222,1.222,0,0,0-.6-.271,3.6,3.6,0,0,1-.65-.325.7.7,0,0,1-.217-.541.869.869,0,0,1,.271-.6,1.029,1.029,0,0,1,.7-.271.863.863,0,0,1,.65.217,1.135,1.135,0,0,1,.325.433l-.379.162a.541.541,0,0,0-.217-.271.583.583,0,0,0-.433-.108,1.274,1.274,0,0,0-.433.108.783.783,0,0,0-.108.379.468.468,0,0,0,.162.325,1.02,1.02,0,0,0,.487.217,2.64,2.64,0,0,1,.379.162,1.133,1.133,0,0,1,.325.217.554.554,0,0,1,.271.325.92.92,0,0,1,0,.866.652.652,0,0,1-.271.271l-.325.162A1.192,1.192,0,0,0,60.137,20.211Z" transform="translate(-54.831 -16.042)"/><path class="j" d="M64.633,20.248H64.2V17h1.083a1.14,1.14,0,0,1,.7.271.873.873,0,0,1,.325.7.953.953,0,0,1-.325.7,1.14,1.14,0,0,1-.7.271h-.65Zm0-1.733h.7a.615.615,0,0,0,.433-.162.585.585,0,0,0,.162-.379.492.492,0,0,0-.162-.379.615.615,0,0,0-.433-.162h-.7Z" transform="translate(-57.216 -16.134)"/><path class="j" d="M71.569,19.769a1.7,1.7,0,1,1,.487-1.191A1.592,1.592,0,0,1,71.569,19.769ZM69.512,19.5a1.278,1.278,0,0,0,.866.379,1.077,1.077,0,0,0,.866-.379,1.306,1.306,0,0,0,.379-.92,1.115,1.115,0,0,0-.379-.92,1.278,1.278,0,0,0-.866-.379,1.077,1.077,0,0,0-.866.379,1.307,1.307,0,0,0,0,1.841Z" transform="translate(-59.279 -16.088)"/><path class="j" d="M76,20.248V17h.487l1.57,2.545h0V17h.433v3.248h-.433L76.379,17.6h0v2.653Z" transform="translate(-62.627 -16.134)"/><path class="j" d="M82,19.515V16.266h.433v3.248ZM82.379,16H82l.217-.6h.433Z" transform="translate(-65.379 -15.4)"/><path class="j" d="M84.637,20.248,83.5,17h.487l.866,2.653h0L85.774,17h.487L85.07,20.248Z" transform="translate(-66.066 -16.134)"/><path class="j" d="M91.395,17.379H89.933v1.029h1.354v.379H89.933v1.029h1.462v.433H89.5V17h1.895Z" transform="translate(-68.818 -16.134)"/><path class="j" d="M94.2,20.248V17h.433v2.869h1.408v.379Z" transform="translate(-70.973 -16.134)"/><path class="j" d="M100.6,20.248V17h.487l1.57,2.545h0V17h.433v3.248h-.433L100.979,17.6h0v2.653Z" transform="translate(-73.908 -16.134)"/><path class="j" d="M109.069,19.769a1.7,1.7,0,1,1,.487-1.191A2.153,2.153,0,0,1,109.069,19.769Zm-2.112-.271a1.278,1.278,0,0,0,.866.379,1.077,1.077,0,0,0,.866-.379,1.306,1.306,0,0,0,.379-.92,1.115,1.115,0,0,0-.379-.92,1.278,1.278,0,0,0-.866-.379,1.077,1.077,0,0,0-.866.379,1.307,1.307,0,0,0,0,1.841Z" transform="translate(-76.476 -16.088)"/></g></g></svg>