<?xml version="1.0" encoding="UTF-8" standalone="no"?>
<!DOCTYPE svg PUBLIC "-//W3C//DTD SVG 1.1//EN"
 "http://www.w3.org/Graphics/SVG/1.1/DTD/svg11.dtd">
<!-- Generated by graphviz version 2.47.0 (20210316.0004)
 -->
<!-- Title: dependencies Pages: 1 -->
<svg width="504pt" height="211pt"
 viewBox="0.00 0.00 504.00 211.00" xmlns="http://www.w3.org/2000/svg" xmlns:xlink="http://www.w3.org/1999/xlink">
<g id="graph0" class="graph" transform="scale(1 1) rotate(0) translate(4 207)">
<title>dependencies</title>
<polygon fill="white" stroke="transparent" points="-4,4 -4,-207 500,-207 500,4 -4,4"/>
<text text-anchor="start" x="227.01" y="-42.4" font-family="Times-12" font-weight="bold" font-size="14.00">Legend</text>
<polygon fill="#ffffb3" stroke="transparent" points="14,-10 14,-30 34,-30 34,-10 14,-10"/>
<text text-anchor="start" x="37.63" y="-15.4" font-family="Times-12" font-size="14.00"> &#160;Declarations</text>
<polygon fill="#8dd3c7" stroke="transparent" points="127,-10 127,-30 147,-30 147,-10 127,-10"/>
<text text-anchor="start" x="150.73" y="-15.4" font-family="Times-12" font-size="14.00"> &#160;Module</text>
<polygon fill="#80b1d3" stroke="transparent" points="213,-10 213,-30 233,-30 233,-10 213,-10"/>
<text text-anchor="start" x="236.78" y="-15.4" font-family="Times-12" font-size="14.00"> &#160;Bootstrap</text>
<polygon fill="#fdb462" stroke="transparent" points="310,-10 310,-30 330,-30 330,-10 310,-10"/>
<text text-anchor="start" x="333.67" y="-15.4" font-family="Times-12" font-size="14.00"> &#160;Providers</text>
<polygon fill="#fb8072" stroke="transparent" points="406,-10 406,-30 426,-30 426,-10 406,-10"/>
<text text-anchor="start" x="429.73" y="-15.4" font-family="Times-12" font-size="14.00"> &#160;Exports</text>
<g id="clust1" class="cluster">
<title>cluster_LandingPageModule</title>
<polygon fill="none" stroke="black" stroke-dasharray="1,5" points="93,-70 93,-195 403,-195 403,-70 93,-70"/>
</g>
<g id="clust4" class="cluster">
<title>cluster_LandingPageModule_imports</title>
<polygon fill="none" stroke="black" points="281,-78 281,-130 395,-130 395,-78 281,-78"/>
</g>
<g id="clust2" class="cluster">
<title>cluster_LandingPageModule_declarations</title>
<polygon fill="none" stroke="black" points="101,-78 101,-130 273,-130 273,-78 101,-78"/>
</g>
<!-- LandingPageComponent -->
<g id="node1" class="node">
<title>LandingPageComponent</title>
<polygon fill="#ffffb3" stroke="black" points="264.7,-122 109.3,-122 109.3,-86 264.7,-86 264.7,-122"/>
<text text-anchor="middle" x="187" y="-99.8" font-family="Times,serif" font-size="14.00">LandingPageComponent</text>
</g>
<!-- LandingPageModule -->
<g id="node2" class="node">
<title>LandingPageModule</title>
<polygon fill="#8dd3c7" stroke="black" points="323.92,-187 320.92,-191 299.92,-191 296.92,-187 190.08,-187 190.08,-151 323.92,-151 323.92,-187"/>
<text text-anchor="middle" x="257" y="-164.8" font-family="Times,serif" font-size="14.00">LandingPageModule</text>
</g>
<!-- LandingPageComponent&#45;&gt;LandingPageModule -->
<g id="edge1" class="edge">
<title>LandingPageComponent&#45;&gt;LandingPageModule</title>
<path fill="none" stroke="black" d="M227.45,-122.11C227.45,-122.11 227.45,-140.99 227.45,-140.99"/>
<polygon fill="black" stroke="black" points="223.95,-140.99 227.45,-150.99 230.95,-140.99 223.95,-140.99"/>
</g>
<!-- SharedModule -->
<g id="node3" class="node">
<title>SharedModule</title>
<polygon fill="#8dd3c7" stroke="black" points="387.42,-122 384.42,-126 363.42,-126 360.42,-122 288.58,-122 288.58,-86 387.42,-86 387.42,-122"/>
<text text-anchor="middle" x="338" y="-99.8" font-family="Times,serif" font-size="14.00">SharedModule</text>
</g>
<!-- SharedModule&#45;&gt;LandingPageModule -->
<g id="edge2" class="edge">
<title>SharedModule&#45;&gt;LandingPageModule</title>
<path fill="none" stroke="black" d="M306.25,-122.11C306.25,-122.11 306.25,-140.99 306.25,-140.99"/>
<polygon fill="black" stroke="black" points="302.75,-140.99 306.25,-150.99 309.75,-140.99 302.75,-140.99"/>
</g>
</g>
</svg>
