<?xml version="1.0" encoding="UTF-8" standalone="no"?>
<!DOCTYPE svg PUBLIC "-//W3C//DTD SVG 1.1//EN"
 "http://www.w3.org/Graphics/SVG/1.1/DTD/svg11.dtd">
<!-- Generated by graphviz version 2.47.0 (20210316.0004)
 -->
<!-- Title: dependencies Pages: 1 -->
<svg width="504pt" height="211pt"
 viewBox="0.00 0.00 504.00 211.00" xmlns="http://www.w3.org/2000/svg" xmlns:xlink="http://www.w3.org/1999/xlink">
<g id="graph0" class="graph" transform="scale(1 1) rotate(0) translate(4 207)">
<title>dependencies</title>
<polygon fill="white" stroke="transparent" points="-4,4 -4,-207 500,-207 500,4 -4,4"/>
<text text-anchor="start" x="227.01" y="-42.4" font-family="Times-12" font-weight="bold" font-size="14.00">Legend</text>
<polygon fill="#ffffb3" stroke="transparent" points="14,-10 14,-30 34,-30 34,-10 14,-10"/>
<text text-anchor="start" x="37.63" y="-15.4" font-family="Times-12" font-size="14.00"> &#160;Declarations</text>
<polygon fill="#8dd3c7" stroke="transparent" points="127,-10 127,-30 147,-30 147,-10 127,-10"/>
<text text-anchor="start" x="150.73" y="-15.4" font-family="Times-12" font-size="14.00"> &#160;Module</text>
<polygon fill="#80b1d3" stroke="transparent" points="213,-10 213,-30 233,-30 233,-10 213,-10"/>
<text text-anchor="start" x="236.78" y="-15.4" font-family="Times-12" font-size="14.00"> &#160;Bootstrap</text>
<polygon fill="#fdb462" stroke="transparent" points="310,-10 310,-30 330,-30 330,-10 310,-10"/>
<text text-anchor="start" x="333.67" y="-15.4" font-family="Times-12" font-size="14.00"> &#160;Providers</text>
<polygon fill="#fb8072" stroke="transparent" points="406,-10 406,-30 426,-30 426,-10 406,-10"/>
<text text-anchor="start" x="429.73" y="-15.4" font-family="Times-12" font-size="14.00"> &#160;Exports</text>
<g id="clust1" class="cluster">
<title>cluster_LoggedModule</title>
<polygon fill="none" stroke="black" stroke-dasharray="1,5" points="26,-70 26,-195 470,-195 470,-70 26,-70"/>
</g>
<g id="clust4" class="cluster">
<title>cluster_LoggedModule_imports</title>
<polygon fill="none" stroke="black" points="182,-78 182,-130 462,-130 462,-78 182,-78"/>
</g>
<g id="clust2" class="cluster">
<title>cluster_LoggedModule_declarations</title>
<polygon fill="none" stroke="black" points="34,-78 34,-130 174,-130 174,-78 34,-78"/>
</g>
<!-- LoggedComponent -->
<g id="node1" class="node">
<title>LoggedComponent</title>
<polygon fill="#ffffb3" stroke="black" points="166.1,-122 41.9,-122 41.9,-86 166.1,-86 166.1,-122"/>
<text text-anchor="middle" x="104" y="-99.8" font-family="Times,serif" font-size="14.00">LoggedComponent</text>
</g>
<!-- LoggedModule -->
<g id="node2" class="node">
<title>LoggedModule</title>
<polygon fill="#8dd3c7" stroke="black" points="290.32,-187 287.32,-191 266.32,-191 263.32,-187 187.68,-187 187.68,-151 290.32,-151 290.32,-187"/>
<text text-anchor="middle" x="239" y="-164.8" font-family="Times,serif" font-size="14.00">LoggedModule</text>
</g>
<!-- LoggedComponent&#45;&gt;LoggedModule -->
<g id="edge1" class="edge">
<title>LoggedComponent&#45;&gt;LoggedModule</title>
<path fill="none" stroke="black" d="M104,-122.11C104,-141.34 104,-169 104,-169 104,-169 177.58,-169 177.58,-169"/>
<polygon fill="black" stroke="black" points="177.58,-172.5 187.58,-169 177.58,-165.5 177.58,-172.5"/>
</g>
<!-- LoggedRoutingModule -->
<g id="node3" class="node">
<title>LoggedRoutingModule</title>
<polygon fill="#8dd3c7" stroke="black" points="453.94,-122 450.94,-126 429.94,-126 426.94,-122 306.06,-122 306.06,-86 453.94,-86 453.94,-122"/>
<text text-anchor="middle" x="380" y="-99.8" font-family="Times,serif" font-size="14.00">LoggedRoutingModule</text>
</g>
<!-- LoggedRoutingModule&#45;&gt;LoggedModule -->
<g id="edge2" class="edge">
<title>LoggedRoutingModule&#45;&gt;LoggedModule</title>
<path fill="none" stroke="black" d="M380,-122.11C380,-141.34 380,-169 380,-169 380,-169 300.3,-169 300.3,-169"/>
<polygon fill="black" stroke="black" points="300.3,-165.5 290.3,-169 300.3,-172.5 300.3,-165.5"/>
</g>
<!-- SharedModule -->
<g id="node4" class="node">
<title>SharedModule</title>
<polygon fill="#8dd3c7" stroke="black" points="288.42,-122 285.42,-126 264.42,-126 261.42,-122 189.58,-122 189.58,-86 288.42,-86 288.42,-122"/>
<text text-anchor="middle" x="239" y="-99.8" font-family="Times,serif" font-size="14.00">SharedModule</text>
</g>
<!-- SharedModule&#45;&gt;LoggedModule -->
<g id="edge3" class="edge">
<title>SharedModule&#45;&gt;LoggedModule</title>
<path fill="none" stroke="black" d="M239,-122.11C239,-122.11 239,-140.99 239,-140.99"/>
<polygon fill="black" stroke="black" points="235.5,-140.99 239,-150.99 242.5,-140.99 235.5,-140.99"/>
</g>
</g>
</svg>
