<?xml version="1.0" encoding="UTF-8" standalone="no"?>
<!DOCTYPE svg PUBLIC "-//W3C//DTD SVG 1.1//EN"
 "http://www.w3.org/Graphics/SVG/1.1/DTD/svg11.dtd">
<!-- Generated by graphviz version 2.47.0 (20210316.0004)
 -->
<!-- Title: dependencies Pages: 1 -->
<svg width="504pt" height="211pt"
 viewBox="0.00 0.00 504.00 211.00" xmlns="http://www.w3.org/2000/svg" xmlns:xlink="http://www.w3.org/1999/xlink">
<g id="graph0" class="graph" transform="scale(1 1) rotate(0) translate(4 207)">
<title>dependencies</title>
<polygon fill="white" stroke="transparent" points="-4,4 -4,-207 500,-207 500,4 -4,4"/>
<text text-anchor="start" x="227.01" y="-42.4" font-family="Times-12" font-weight="bold" font-size="14.00">Legend</text>
<polygon fill="#ffffb3" stroke="transparent" points="14,-10 14,-30 34,-30 34,-10 14,-10"/>
<text text-anchor="start" x="37.63" y="-15.4" font-family="Times-12" font-size="14.00"> &#160;Declarations</text>
<polygon fill="#8dd3c7" stroke="transparent" points="127,-10 127,-30 147,-30 147,-10 127,-10"/>
<text text-anchor="start" x="150.73" y="-15.4" font-family="Times-12" font-size="14.00"> &#160;Module</text>
<polygon fill="#80b1d3" stroke="transparent" points="213,-10 213,-30 233,-30 233,-10 213,-10"/>
<text text-anchor="start" x="236.78" y="-15.4" font-family="Times-12" font-size="14.00"> &#160;Bootstrap</text>
<polygon fill="#fdb462" stroke="transparent" points="310,-10 310,-30 330,-30 330,-10 310,-10"/>
<text text-anchor="start" x="333.67" y="-15.4" font-family="Times-12" font-size="14.00"> &#160;Providers</text>
<polygon fill="#fb8072" stroke="transparent" points="406,-10 406,-30 426,-30 426,-10 406,-10"/>
<text text-anchor="start" x="429.73" y="-15.4" font-family="Times-12" font-size="14.00"> &#160;Exports</text>
<g id="clust1" class="cluster">
<title>cluster_LoggedModule</title>
<polygon fill="none" stroke="black" stroke-dasharray="1,5" points="26,-70 26,-195 470,-195 470,-70 26,-70"/>
</g>
<g id="clust2" class="cluster">
<title>cluster_LoggedModule_declarations</title>
<polygon fill="none" stroke="black" points="322,-78 322,-130 462,-130 462,-78 322,-78"/>
</g>
<g id="clust4" class="cluster">
<title>cluster_LoggedModule_imports</title>
<polygon fill="none" stroke="black" points="34,-78 34,-130 314,-130 314,-78 34,-78"/>
</g>
<!-- LoggedComponent -->
<g id="node1" class="node">
<title>LoggedComponent</title>
<polygon fill="#ffffb3" stroke="black" points="454.1,-122 329.9,-122 329.9,-86 454.1,-86 454.1,-122"/>
<text text-anchor="middle" x="392" y="-99.8" font-family="Times,serif" font-size="14.00">LoggedComponent</text>
</g>
<!-- LoggedModule -->
<g id="node2" class="node">
<title>LoggedModule</title>
<polygon fill="#8dd3c7" stroke="black" points="283.32,-187 280.32,-191 259.32,-191 256.32,-187 180.68,-187 180.68,-151 283.32,-151 283.32,-187"/>
<text text-anchor="middle" x="232" y="-164.8" font-family="Times,serif" font-size="14.00">LoggedModule</text>
</g>
<!-- LoggedComponent&#45;&gt;LoggedModule -->
<g id="edge1" class="edge">
<title>LoggedComponent&#45;&gt;LoggedModule</title>
<path fill="none" stroke="black" d="M392,-122.11C392,-141.34 392,-169 392,-169 392,-169 293.51,-169 293.51,-169"/>
<polygon fill="black" stroke="black" points="293.51,-165.5 283.51,-169 293.51,-172.5 293.51,-165.5"/>
</g>
<!-- LoggedRoutingModule -->
<g id="node3" class="node">
<title>LoggedRoutingModule</title>
<polygon fill="#8dd3c7" stroke="black" points="305.94,-122 302.94,-126 281.94,-126 278.94,-122 158.06,-122 158.06,-86 305.94,-86 305.94,-122"/>
<text text-anchor="middle" x="232" y="-99.8" font-family="Times,serif" font-size="14.00">LoggedRoutingModule</text>
</g>
<!-- LoggedRoutingModule&#45;&gt;LoggedModule -->
<g id="edge2" class="edge">
<title>LoggedRoutingModule&#45;&gt;LoggedModule</title>
<path fill="none" stroke="black" d="M232,-122.11C232,-122.11 232,-140.99 232,-140.99"/>
<polygon fill="black" stroke="black" points="228.5,-140.99 232,-150.99 235.5,-140.99 228.5,-140.99"/>
</g>
<!-- SharedModule -->
<g id="node4" class="node">
<title>SharedModule</title>
<polygon fill="#8dd3c7" stroke="black" points="140.42,-122 137.42,-126 116.42,-126 113.42,-122 41.58,-122 41.58,-86 140.42,-86 140.42,-122"/>
<text text-anchor="middle" x="91" y="-99.8" font-family="Times,serif" font-size="14.00">SharedModule</text>
</g>
<!-- SharedModule&#45;&gt;LoggedModule -->
<g id="edge3" class="edge">
<title>SharedModule&#45;&gt;LoggedModule</title>
<path fill="none" stroke="black" d="M91,-122.11C91,-141.34 91,-169 91,-169 91,-169 170.7,-169 170.7,-169"/>
<polygon fill="black" stroke="black" points="170.7,-172.5 180.7,-169 170.7,-165.5 170.7,-172.5"/>
</g>
</g>
</svg>
