<?xml version="1.0" encoding="UTF-8" standalone="no"?>
<!DOCTYPE svg PUBLIC "-//W3C//DTD SVG 1.1//EN"
 "http://www.w3.org/Graphics/SVG/1.1/DTD/svg11.dtd">
<!-- Generated by graphviz version 2.47.0 (20210316.0004)
 -->
<!-- Title: dependencies Pages: 1 -->
<svg width="572pt" height="211pt"
 viewBox="0.00 0.00 572.00 211.00" xmlns="http://www.w3.org/2000/svg" xmlns:xlink="http://www.w3.org/1999/xlink">
<g id="graph0" class="graph" transform="scale(1 1) rotate(0) translate(4 207)">
<title>dependencies</title>
<polygon fill="white" stroke="transparent" points="-4,4 -4,-207 568,-207 568,4 -4,4"/>
<text text-anchor="start" x="261.01" y="-42.4" font-family="Times-12" font-weight="bold" font-size="14.00">Legend</text>
<polygon fill="#ffffb3" stroke="transparent" points="48,-10 48,-30 68,-30 68,-10 48,-10"/>
<text text-anchor="start" x="71.63" y="-15.4" font-family="Times-12" font-size="14.00"> &#160;Declarations</text>
<polygon fill="#8dd3c7" stroke="transparent" points="161,-10 161,-30 181,-30 181,-10 161,-10"/>
<text text-anchor="start" x="184.73" y="-15.4" font-family="Times-12" font-size="14.00"> &#160;Module</text>
<polygon fill="#80b1d3" stroke="transparent" points="247,-10 247,-30 267,-30 267,-10 247,-10"/>
<text text-anchor="start" x="270.78" y="-15.4" font-family="Times-12" font-size="14.00"> &#160;Bootstrap</text>
<polygon fill="#fdb462" stroke="transparent" points="344,-10 344,-30 364,-30 364,-10 344,-10"/>
<text text-anchor="start" x="367.67" y="-15.4" font-family="Times-12" font-size="14.00"> &#160;Providers</text>
<polygon fill="#fb8072" stroke="transparent" points="440,-10 440,-30 460,-30 460,-10 440,-10"/>
<text text-anchor="start" x="463.73" y="-15.4" font-family="Times-12" font-size="14.00"> &#160;Exports</text>
<g id="clust1" class="cluster">
<title>cluster_FilterPreferencesModule</title>
<polygon fill="none" stroke="black" stroke-dasharray="1,5" points="8,-70 8,-195 556,-195 556,-70 8,-70"/>
</g>
<g id="clust4" class="cluster">
<title>cluster_FilterPreferencesModule_imports</title>
<polygon fill="none" stroke="black" points="216,-78 216,-130 548,-130 548,-78 216,-78"/>
</g>
<g id="clust2" class="cluster">
<title>cluster_FilterPreferencesModule_declarations</title>
<polygon fill="none" stroke="black" points="16,-78 16,-130 208,-130 208,-78 16,-78"/>
</g>
<!-- FilterPreferencesComponent -->
<g id="node1" class="node">
<title>FilterPreferencesComponent</title>
<polygon fill="#ffffb3" stroke="black" points="200.44,-122 23.56,-122 23.56,-86 200.44,-86 200.44,-122"/>
<text text-anchor="middle" x="112" y="-99.8" font-family="Times,serif" font-size="14.00">FilterPreferencesComponent</text>
</g>
<!-- FilterPreferencesModule -->
<g id="node2" class="node">
<title>FilterPreferencesModule</title>
<polygon fill="#8dd3c7" stroke="black" points="350.66,-187 347.66,-191 326.66,-191 323.66,-187 195.34,-187 195.34,-151 350.66,-151 350.66,-187"/>
<text text-anchor="middle" x="273" y="-164.8" font-family="Times,serif" font-size="14.00">FilterPreferencesModule</text>
</g>
<!-- FilterPreferencesComponent&#45;&gt;FilterPreferencesModule -->
<g id="edge1" class="edge">
<title>FilterPreferencesComponent&#45;&gt;FilterPreferencesModule</title>
<path fill="none" stroke="black" d="M200.64,-104C207.68,-104 212.13,-104 212.13,-104 212.13,-104 212.13,-140.89 212.13,-140.89"/>
<polygon fill="black" stroke="black" points="208.63,-140.89 212.13,-150.89 215.63,-140.89 208.63,-140.89"/>
</g>
<!-- FilterPreferencesRoutingModule -->
<g id="node3" class="node">
<title>FilterPreferencesRoutingModule</title>
<polygon fill="#8dd3c7" stroke="black" points="540.28,-122 537.28,-126 516.28,-126 513.28,-122 339.72,-122 339.72,-86 540.28,-86 540.28,-122"/>
<text text-anchor="middle" x="440" y="-99.8" font-family="Times,serif" font-size="14.00">FilterPreferencesRoutingModule</text>
</g>
<!-- FilterPreferencesRoutingModule&#45;&gt;FilterPreferencesModule -->
<g id="edge2" class="edge">
<title>FilterPreferencesRoutingModule&#45;&gt;FilterPreferencesModule</title>
<path fill="none" stroke="black" d="M345.22,-122.11C345.22,-122.11 345.22,-140.99 345.22,-140.99"/>
<polygon fill="black" stroke="black" points="341.72,-140.99 345.22,-150.99 348.72,-140.99 341.72,-140.99"/>
</g>
<!-- SharedModule -->
<g id="node4" class="node">
<title>SharedModule</title>
<polygon fill="#8dd3c7" stroke="black" points="322.42,-122 319.42,-126 298.42,-126 295.42,-122 223.58,-122 223.58,-86 322.42,-86 322.42,-122"/>
<text text-anchor="middle" x="273" y="-99.8" font-family="Times,serif" font-size="14.00">SharedModule</text>
</g>
<!-- SharedModule&#45;&gt;FilterPreferencesModule -->
<g id="edge3" class="edge">
<title>SharedModule&#45;&gt;FilterPreferencesModule</title>
<path fill="none" stroke="black" d="M273,-122.11C273,-122.11 273,-140.99 273,-140.99"/>
<polygon fill="black" stroke="black" points="269.5,-140.99 273,-150.99 276.5,-140.99 269.5,-140.99"/>
</g>
</g>
</svg>
