<?xml version="1.0" encoding="UTF-8" standalone="no"?>
<!DOCTYPE svg PUBLIC "-//W3C//DTD SVG 1.1//EN"
 "http://www.w3.org/Graphics/SVG/1.1/DTD/svg11.dtd">
<!-- Generated by graphviz version 2.47.0 (20210316.0004)
 -->
<!-- Title: dependencies Pages: 1 -->
<svg width="612pt" height="211pt"
 viewBox="0.00 0.00 612.00 211.00" xmlns="http://www.w3.org/2000/svg" xmlns:xlink="http://www.w3.org/1999/xlink">
<g id="graph0" class="graph" transform="scale(1 1) rotate(0) translate(4 207)">
<title>dependencies</title>
<polygon fill="white" stroke="transparent" points="-4,4 -4,-207 608,-207 608,4 -4,4"/>
<text text-anchor="start" x="281.01" y="-42.4" font-family="Times-12" font-weight="bold" font-size="14.00">Legend</text>
<polygon fill="#ffffb3" stroke="transparent" points="68,-10 68,-30 88,-30 88,-10 68,-10"/>
<text text-anchor="start" x="91.63" y="-15.4" font-family="Times-12" font-size="14.00"> &#160;Declarations</text>
<polygon fill="#8dd3c7" stroke="transparent" points="181,-10 181,-30 201,-30 201,-10 181,-10"/>
<text text-anchor="start" x="204.73" y="-15.4" font-family="Times-12" font-size="14.00"> &#160;Module</text>
<polygon fill="#80b1d3" stroke="transparent" points="267,-10 267,-30 287,-30 287,-10 267,-10"/>
<text text-anchor="start" x="290.78" y="-15.4" font-family="Times-12" font-size="14.00"> &#160;Bootstrap</text>
<polygon fill="#fdb462" stroke="transparent" points="364,-10 364,-30 384,-30 384,-10 364,-10"/>
<text text-anchor="start" x="387.67" y="-15.4" font-family="Times-12" font-size="14.00"> &#160;Providers</text>
<polygon fill="#fb8072" stroke="transparent" points="460,-10 460,-30 480,-30 480,-10 460,-10"/>
<text text-anchor="start" x="483.73" y="-15.4" font-family="Times-12" font-size="14.00"> &#160;Exports</text>
<g id="clust1" class="cluster">
<title>cluster_RememberPasswordModule</title>
<polygon fill="none" stroke="black" stroke-dasharray="1,5" points="8,-70 8,-195 596,-195 596,-70 8,-70"/>
</g>
<g id="clust4" class="cluster">
<title>cluster_RememberPasswordModule_imports</title>
<polygon fill="none" stroke="black" points="236,-78 236,-130 588,-130 588,-78 236,-78"/>
</g>
<g id="clust2" class="cluster">
<title>cluster_RememberPasswordModule_declarations</title>
<polygon fill="none" stroke="black" points="16,-78 16,-130 228,-130 228,-78 16,-78"/>
</g>
<!-- RememberPasswordComponent -->
<g id="node1" class="node">
<title>RememberPasswordComponent</title>
<polygon fill="#ffffb3" stroke="black" points="220.41,-122 23.59,-122 23.59,-86 220.41,-86 220.41,-122"/>
<text text-anchor="middle" x="122" y="-99.8" font-family="Times,serif" font-size="14.00">RememberPasswordComponent</text>
</g>
<!-- RememberPasswordModule -->
<g id="node2" class="node">
<title>RememberPasswordModule</title>
<polygon fill="#8dd3c7" stroke="black" points="380.13,-187 377.13,-191 356.13,-191 353.13,-187 205.87,-187 205.87,-151 380.13,-151 380.13,-187"/>
<text text-anchor="middle" x="293" y="-164.8" font-family="Times,serif" font-size="14.00">RememberPasswordModule</text>
</g>
<!-- RememberPasswordComponent&#45;&gt;RememberPasswordModule -->
<g id="edge1" class="edge">
<title>RememberPasswordComponent&#45;&gt;RememberPasswordModule</title>
<path fill="none" stroke="black" d="M212.95,-122.11C212.95,-122.11 212.95,-140.99 212.95,-140.99"/>
<polygon fill="black" stroke="black" points="209.45,-140.99 212.95,-150.99 216.45,-140.99 209.45,-140.99"/>
</g>
<!-- RememberPasswordRoutingModule -->
<g id="node3" class="node">
<title>RememberPasswordRoutingModule</title>
<polygon fill="#8dd3c7" stroke="black" points="579.74,-122 576.74,-126 555.74,-126 552.74,-122 360.26,-122 360.26,-86 579.74,-86 579.74,-122"/>
<text text-anchor="middle" x="470" y="-99.8" font-family="Times,serif" font-size="14.00">RememberPasswordRoutingModule</text>
</g>
<!-- RememberPasswordRoutingModule&#45;&gt;RememberPasswordModule -->
<g id="edge2" class="edge">
<title>RememberPasswordRoutingModule&#45;&gt;RememberPasswordModule</title>
<path fill="none" stroke="black" d="M370.22,-122.11C370.22,-122.11 370.22,-140.99 370.22,-140.99"/>
<polygon fill="black" stroke="black" points="366.72,-140.99 370.22,-150.99 373.72,-140.99 366.72,-140.99"/>
</g>
<!-- SharedModule -->
<g id="node4" class="node">
<title>SharedModule</title>
<polygon fill="#8dd3c7" stroke="black" points="342.42,-122 339.42,-126 318.42,-126 315.42,-122 243.58,-122 243.58,-86 342.42,-86 342.42,-122"/>
<text text-anchor="middle" x="293" y="-99.8" font-family="Times,serif" font-size="14.00">SharedModule</text>
</g>
<!-- SharedModule&#45;&gt;RememberPasswordModule -->
<g id="edge3" class="edge">
<title>SharedModule&#45;&gt;RememberPasswordModule</title>
<path fill="none" stroke="black" d="M293,-122.11C293,-122.11 293,-140.99 293,-140.99"/>
<polygon fill="black" stroke="black" points="289.5,-140.99 293,-150.99 296.5,-140.99 289.5,-140.99"/>
</g>
</g>
</svg>
