<?xml version="1.0" encoding="UTF-8" standalone="no"?>
<!DOCTYPE svg PUBLIC "-//W3C//DTD SVG 1.1//EN"
 "http://www.w3.org/Graphics/SVG/1.1/DTD/svg11.dtd">
<!-- Generated by graphviz version 2.47.0 (20210316.0004)
 -->
<!-- Title: dependencies Pages: 1 -->
<svg width="612pt" height="211pt"
 viewBox="0.00 0.00 612.00 211.00" xmlns="http://www.w3.org/2000/svg" xmlns:xlink="http://www.w3.org/1999/xlink">
<g id="graph0" class="graph" transform="scale(1 1) rotate(0) translate(4 207)">
<title>dependencies</title>
<polygon fill="white" stroke="transparent" points="-4,4 -4,-207 608,-207 608,4 -4,4"/>
<text text-anchor="start" x="281.01" y="-42.4" font-family="Times-12" font-weight="bold" font-size="14.00">Legend</text>
<polygon fill="#ffffb3" stroke="transparent" points="68,-10 68,-30 88,-30 88,-10 68,-10"/>
<text text-anchor="start" x="91.63" y="-15.4" font-family="Times-12" font-size="14.00"> &#160;Declarations</text>
<polygon fill="#8dd3c7" stroke="transparent" points="181,-10 181,-30 201,-30 201,-10 181,-10"/>
<text text-anchor="start" x="204.73" y="-15.4" font-family="Times-12" font-size="14.00"> &#160;Module</text>
<polygon fill="#80b1d3" stroke="transparent" points="267,-10 267,-30 287,-30 287,-10 267,-10"/>
<text text-anchor="start" x="290.78" y="-15.4" font-family="Times-12" font-size="14.00"> &#160;Bootstrap</text>
<polygon fill="#fdb462" stroke="transparent" points="364,-10 364,-30 384,-30 384,-10 364,-10"/>
<text text-anchor="start" x="387.67" y="-15.4" font-family="Times-12" font-size="14.00"> &#160;Providers</text>
<polygon fill="#fb8072" stroke="transparent" points="460,-10 460,-30 480,-30 480,-10 460,-10"/>
<text text-anchor="start" x="483.73" y="-15.4" font-family="Times-12" font-size="14.00"> &#160;Exports</text>
<g id="clust1" class="cluster">
<title>cluster_RememberPasswordModule</title>
<polygon fill="none" stroke="black" stroke-dasharray="1,5" points="8,-70 8,-195 596,-195 596,-70 8,-70"/>
</g>
<g id="clust2" class="cluster">
<title>cluster_RememberPasswordModule_declarations</title>
<polygon fill="none" stroke="black" points="376,-78 376,-130 588,-130 588,-78 376,-78"/>
</g>
<g id="clust4" class="cluster">
<title>cluster_RememberPasswordModule_imports</title>
<polygon fill="none" stroke="black" points="16,-78 16,-130 368,-130 368,-78 16,-78"/>
</g>
<!-- RememberPasswordComponent -->
<g id="node1" class="node">
<title>RememberPasswordComponent</title>
<polygon fill="#ffffb3" stroke="black" points="580.41,-122 383.59,-122 383.59,-86 580.41,-86 580.41,-122"/>
<text text-anchor="middle" x="482" y="-99.8" font-family="Times,serif" font-size="14.00">RememberPasswordComponent</text>
</g>
<!-- RememberPasswordModule -->
<g id="node2" class="node">
<title>RememberPasswordModule</title>
<polygon fill="#8dd3c7" stroke="black" points="337.13,-187 334.13,-191 313.13,-191 310.13,-187 162.87,-187 162.87,-151 337.13,-151 337.13,-187"/>
<text text-anchor="middle" x="250" y="-164.8" font-family="Times,serif" font-size="14.00">RememberPasswordModule</text>
</g>
<!-- RememberPasswordComponent&#45;&gt;RememberPasswordModule -->
<g id="edge1" class="edge">
<title>RememberPasswordComponent&#45;&gt;RememberPasswordModule</title>
<path fill="none" stroke="black" d="M482,-122.11C482,-141.34 482,-169 482,-169 482,-169 347.38,-169 347.38,-169"/>
<polygon fill="black" stroke="black" points="347.38,-165.5 337.38,-169 347.38,-172.5 347.38,-165.5"/>
</g>
<!-- RememberPasswordRoutingModule -->
<g id="node3" class="node">
<title>RememberPasswordRoutingModule</title>
<polygon fill="#8dd3c7" stroke="black" points="359.74,-122 356.74,-126 335.74,-126 332.74,-122 140.26,-122 140.26,-86 359.74,-86 359.74,-122"/>
<text text-anchor="middle" x="250" y="-99.8" font-family="Times,serif" font-size="14.00">RememberPasswordRoutingModule</text>
</g>
<!-- RememberPasswordRoutingModule&#45;&gt;RememberPasswordModule -->
<g id="edge2" class="edge">
<title>RememberPasswordRoutingModule&#45;&gt;RememberPasswordModule</title>
<path fill="none" stroke="black" d="M250,-122.11C250,-122.11 250,-140.99 250,-140.99"/>
<polygon fill="black" stroke="black" points="246.5,-140.99 250,-150.99 253.5,-140.99 246.5,-140.99"/>
</g>
<!-- SharedModule -->
<g id="node4" class="node">
<title>SharedModule</title>
<polygon fill="#8dd3c7" stroke="black" points="122.42,-122 119.42,-126 98.42,-126 95.42,-122 23.58,-122 23.58,-86 122.42,-86 122.42,-122"/>
<text text-anchor="middle" x="73" y="-99.8" font-family="Times,serif" font-size="14.00">SharedModule</text>
</g>
<!-- SharedModule&#45;&gt;RememberPasswordModule -->
<g id="edge3" class="edge">
<title>SharedModule&#45;&gt;RememberPasswordModule</title>
<path fill="none" stroke="black" d="M73,-122.11C73,-141.34 73,-169 73,-169 73,-169 152.8,-169 152.8,-169"/>
<polygon fill="black" stroke="black" points="152.8,-172.5 162.8,-169 152.8,-165.5 152.8,-172.5"/>
</g>
</g>
</svg>
