<?xml version="1.0" encoding="UTF-8" standalone="no"?>
<!DOCTYPE svg PUBLIC "-//W3C//DTD SVG 1.1//EN"
 "http://www.w3.org/Graphics/SVG/1.1/DTD/svg11.dtd">
<!-- Generated by graphviz version 2.47.0 (20210316.0004)
 -->
<!-- Title: dependencies Pages: 1 -->
<svg width="948pt" height="211pt"
 viewBox="0.00 0.00 948.00 211.00" xmlns="http://www.w3.org/2000/svg" xmlns:xlink="http://www.w3.org/1999/xlink">
<g id="graph0" class="graph" transform="scale(1 1) rotate(0) translate(4 207)">
<title>dependencies</title>
<polygon fill="white" stroke="transparent" points="-4,4 -4,-207 944,-207 944,4 -4,4"/>
<text text-anchor="start" x="449.01" y="-42.4" font-family="Times-12" font-weight="bold" font-size="14.00">Legend</text>
<polygon fill="#ffffb3" stroke="transparent" points="236,-10 236,-30 256,-30 256,-10 236,-10"/>
<text text-anchor="start" x="259.63" y="-15.4" font-family="Times-12" font-size="14.00"> &#160;Declarations</text>
<polygon fill="#8dd3c7" stroke="transparent" points="349,-10 349,-30 369,-30 369,-10 349,-10"/>
<text text-anchor="start" x="372.73" y="-15.4" font-family="Times-12" font-size="14.00"> &#160;Module</text>
<polygon fill="#80b1d3" stroke="transparent" points="435,-10 435,-30 455,-30 455,-10 435,-10"/>
<text text-anchor="start" x="458.78" y="-15.4" font-family="Times-12" font-size="14.00"> &#160;Bootstrap</text>
<polygon fill="#fdb462" stroke="transparent" points="532,-10 532,-30 552,-30 552,-10 532,-10"/>
<text text-anchor="start" x="555.67" y="-15.4" font-family="Times-12" font-size="14.00"> &#160;Providers</text>
<polygon fill="#fb8072" stroke="transparent" points="628,-10 628,-30 648,-30 648,-10 628,-10"/>
<text text-anchor="start" x="651.73" y="-15.4" font-family="Times-12" font-size="14.00"> &#160;Exports</text>
<g id="clust1" class="cluster">
<title>cluster_ContinueRegisterModule</title>
<polygon fill="none" stroke="black" stroke-dasharray="1,5" points="8,-70 8,-195 932,-195 932,-70 8,-70"/>
</g>
<g id="clust2" class="cluster">
<title>cluster_ContinueRegisterModule_declarations</title>
<polygon fill="none" stroke="black" points="359,-78 359,-130 924,-130 924,-78 359,-78"/>
</g>
<g id="clust6" class="cluster">
<title>cluster_ContinueRegisterModule_imports</title>
<polygon fill="none" stroke="black" points="16,-78 16,-130 351,-130 351,-78 16,-78"/>
</g>
<!-- ChangeUserTypeComponent -->
<g id="node1" class="node">
<title>ChangeUserTypeComponent</title>
<polygon fill="#ffffb3" stroke="black" points="915.79,-122 736.21,-122 736.21,-86 915.79,-86 915.79,-122"/>
<text text-anchor="middle" x="826" y="-99.8" font-family="Times,serif" font-size="14.00">ChangeUserTypeComponent</text>
</g>
<!-- ContinueRegisterModule -->
<g id="node4" class="node">
<title>ContinueRegisterModule</title>
<polygon fill="#8dd3c7" stroke="black" points="522.54,-187 519.54,-191 498.54,-191 495.54,-187 365.46,-187 365.46,-151 522.54,-151 522.54,-187"/>
<text text-anchor="middle" x="444" y="-164.8" font-family="Times,serif" font-size="14.00">ContinueRegisterModule</text>
</g>
<!-- ChangeUserTypeComponent&#45;&gt;ContinueRegisterModule -->
<g id="edge1" class="edge">
<title>ChangeUserTypeComponent&#45;&gt;ContinueRegisterModule</title>
<path fill="none" stroke="black" d="M826,-122.28C826,-143.32 826,-175 826,-175 826,-175 532.69,-175 532.69,-175"/>
<polygon fill="black" stroke="black" points="532.69,-171.5 522.69,-175 532.69,-178.5 532.69,-171.5"/>
</g>
<!-- ContinueRegisterComponent -->
<g id="node2" class="node">
<title>ContinueRegisterComponent</title>
<polygon fill="#ffffb3" stroke="black" points="718.82,-122 539.18,-122 539.18,-86 718.82,-86 718.82,-122"/>
<text text-anchor="middle" x="629" y="-99.8" font-family="Times,serif" font-size="14.00">ContinueRegisterComponent</text>
</g>
<!-- ContinueRegisterComponent&#45;&gt;ContinueRegisterModule -->
<g id="edge2" class="edge">
<title>ContinueRegisterComponent&#45;&gt;ContinueRegisterModule</title>
<path fill="none" stroke="black" d="M629,-122.02C629,-139.37 629,-163 629,-163 629,-163 532.72,-163 532.72,-163"/>
<polygon fill="black" stroke="black" points="532.72,-159.5 522.72,-163 532.72,-166.5 532.72,-159.5"/>
</g>
<!-- RegisterDataComponent -->
<g id="node3" class="node">
<title>RegisterDataComponent</title>
<polygon fill="#ffffb3" stroke="black" points="521.41,-122 366.59,-122 366.59,-86 521.41,-86 521.41,-122"/>
<text text-anchor="middle" x="444" y="-99.8" font-family="Times,serif" font-size="14.00">RegisterDataComponent</text>
</g>
<!-- RegisterDataComponent&#45;&gt;ContinueRegisterModule -->
<g id="edge3" class="edge">
<title>RegisterDataComponent&#45;&gt;ContinueRegisterModule</title>
<path fill="none" stroke="black" d="M444,-122.11C444,-122.11 444,-140.99 444,-140.99"/>
<polygon fill="black" stroke="black" points="440.5,-140.99 444,-150.99 447.5,-140.99 440.5,-140.99"/>
</g>
<!-- ContinueRegisterRoutingModule -->
<g id="node5" class="node">
<title>ContinueRegisterRoutingModule</title>
<polygon fill="#8dd3c7" stroke="black" points="343.15,-122 340.15,-126 319.15,-126 316.15,-122 140.85,-122 140.85,-86 343.15,-86 343.15,-122"/>
<text text-anchor="middle" x="242" y="-99.8" font-family="Times,serif" font-size="14.00">ContinueRegisterRoutingModule</text>
</g>
<!-- ContinueRegisterRoutingModule&#45;&gt;ContinueRegisterModule -->
<g id="edge4" class="edge">
<title>ContinueRegisterRoutingModule&#45;&gt;ContinueRegisterModule</title>
<path fill="none" stroke="black" d="M242,-122.02C242,-139.37 242,-163 242,-163 242,-163 355.32,-163 355.32,-163"/>
<polygon fill="black" stroke="black" points="355.32,-166.5 365.32,-163 355.32,-159.5 355.32,-166.5"/>
</g>
<!-- SharedModule -->
<g id="node6" class="node">
<title>SharedModule</title>
<polygon fill="#8dd3c7" stroke="black" points="122.42,-122 119.42,-126 98.42,-126 95.42,-122 23.58,-122 23.58,-86 122.42,-86 122.42,-122"/>
<text text-anchor="middle" x="73" y="-99.8" font-family="Times,serif" font-size="14.00">SharedModule</text>
</g>
<!-- SharedModule&#45;&gt;ContinueRegisterModule -->
<g id="edge5" class="edge">
<title>SharedModule&#45;&gt;ContinueRegisterModule</title>
<path fill="none" stroke="black" d="M73,-122.28C73,-143.32 73,-175 73,-175 73,-175 355.32,-175 355.32,-175"/>
<polygon fill="black" stroke="black" points="355.32,-178.5 365.32,-175 355.32,-171.5 355.32,-178.5"/>
</g>
</g>
</svg>
