<?xml version="1.0" encoding="UTF-8" standalone="no"?>
<!DOCTYPE svg PUBLIC "-//W3C//DTD SVG 1.1//EN"
 "http://www.w3.org/Graphics/SVG/1.1/DTD/svg11.dtd">
<!-- Generated by graphviz version 2.47.0 (20210316.0004)
 -->
<!-- Title: dependencies Pages: 1 -->
<svg width="504pt" height="211pt"
 viewBox="0.00 0.00 504.00 211.00" xmlns="http://www.w3.org/2000/svg" xmlns:xlink="http://www.w3.org/1999/xlink">
<g id="graph0" class="graph" transform="scale(1 1) rotate(0) translate(4 207)">
<title>dependencies</title>
<polygon fill="white" stroke="transparent" points="-4,4 -4,-207 500,-207 500,4 -4,4"/>
<text text-anchor="start" x="227.01" y="-42.4" font-family="Times-12" font-weight="bold" font-size="14.00">Legend</text>
<polygon fill="#ffffb3" stroke="transparent" points="14,-10 14,-30 34,-30 34,-10 14,-10"/>
<text text-anchor="start" x="37.63" y="-15.4" font-family="Times-12" font-size="14.00"> &#160;Declarations</text>
<polygon fill="#8dd3c7" stroke="transparent" points="127,-10 127,-30 147,-30 147,-10 127,-10"/>
<text text-anchor="start" x="150.73" y="-15.4" font-family="Times-12" font-size="14.00"> &#160;Module</text>
<polygon fill="#80b1d3" stroke="transparent" points="213,-10 213,-30 233,-30 233,-10 213,-10"/>
<text text-anchor="start" x="236.78" y="-15.4" font-family="Times-12" font-size="14.00"> &#160;Bootstrap</text>
<polygon fill="#fdb462" stroke="transparent" points="310,-10 310,-30 330,-30 330,-10 310,-10"/>
<text text-anchor="start" x="333.67" y="-15.4" font-family="Times-12" font-size="14.00"> &#160;Providers</text>
<polygon fill="#fb8072" stroke="transparent" points="406,-10 406,-30 426,-30 426,-10 406,-10"/>
<text text-anchor="start" x="429.73" y="-15.4" font-family="Times-12" font-size="14.00"> &#160;Exports</text>
<g id="clust1" class="cluster">
<title>cluster_SignInModule</title>
<polygon fill="none" stroke="black" stroke-dasharray="1,5" points="32,-70 32,-195 464,-195 464,-70 32,-70"/>
</g>
<g id="clust4" class="cluster">
<title>cluster_SignInModule_imports</title>
<polygon fill="none" stroke="black" points="182,-78 182,-130 456,-130 456,-78 182,-78"/>
</g>
<g id="clust2" class="cluster">
<title>cluster_SignInModule_declarations</title>
<polygon fill="none" stroke="black" points="40,-78 40,-130 174,-130 174,-78 40,-78"/>
</g>
<!-- SignInComponent -->
<g id="node1" class="node">
<title>SignInComponent</title>
<polygon fill="#ffffb3" stroke="black" points="166.17,-122 47.83,-122 47.83,-86 166.17,-86 166.17,-122"/>
<text text-anchor="middle" x="107" y="-99.8" font-family="Times,serif" font-size="14.00">SignInComponent</text>
</g>
<!-- SignInModule -->
<g id="node2" class="node">
<title>SignInModule</title>
<polygon fill="#8dd3c7" stroke="black" points="309.38,-187 306.38,-191 285.38,-191 282.38,-187 212.62,-187 212.62,-151 309.38,-151 309.38,-187"/>
<text text-anchor="middle" x="261" y="-164.8" font-family="Times,serif" font-size="14.00">SignInModule</text>
</g>
<!-- SignInComponent&#45;&gt;SignInModule -->
<g id="edge1" class="edge">
<title>SignInComponent&#45;&gt;SignInModule</title>
<path fill="none" stroke="black" d="M107,-122.11C107,-141.34 107,-169 107,-169 107,-169 202.27,-169 202.27,-169"/>
<polygon fill="black" stroke="black" points="202.27,-172.5 212.27,-169 202.27,-165.5 202.27,-172.5"/>
</g>
<!-- SharedModule -->
<g id="node3" class="node">
<title>SharedModule</title>
<polygon fill="#8dd3c7" stroke="black" points="448.42,-122 445.42,-126 424.42,-126 421.42,-122 349.58,-122 349.58,-86 448.42,-86 448.42,-122"/>
<text text-anchor="middle" x="399" y="-99.8" font-family="Times,serif" font-size="14.00">SharedModule</text>
</g>
<!-- SharedModule&#45;&gt;SignInModule -->
<g id="edge2" class="edge">
<title>SharedModule&#45;&gt;SignInModule</title>
<path fill="none" stroke="black" d="M399,-122.11C399,-141.34 399,-169 399,-169 399,-169 319.65,-169 319.65,-169"/>
<polygon fill="black" stroke="black" points="319.65,-165.5 309.65,-169 319.65,-172.5 319.65,-165.5"/>
</g>
<!-- SignInRoutingModule -->
<g id="node4" class="node">
<title>SignInRoutingModule</title>
<polygon fill="#8dd3c7" stroke="black" points="332,-122 329,-126 308,-126 305,-122 190,-122 190,-86 332,-86 332,-122"/>
<text text-anchor="middle" x="261" y="-99.8" font-family="Times,serif" font-size="14.00">SignInRoutingModule</text>
</g>
<!-- SignInRoutingModule&#45;&gt;SignInModule -->
<g id="edge3" class="edge">
<title>SignInRoutingModule&#45;&gt;SignInModule</title>
<path fill="none" stroke="black" d="M261,-122.11C261,-122.11 261,-140.99 261,-140.99"/>
<polygon fill="black" stroke="black" points="257.5,-140.99 261,-150.99 264.5,-140.99 257.5,-140.99"/>
</g>
</g>
</svg>
