<?xml version="1.0" encoding="UTF-8" standalone="no"?>
<!DOCTYPE svg PUBLIC "-//W3C//DTD SVG 1.1//EN"
 "http://www.w3.org/Graphics/SVG/1.1/DTD/svg11.dtd">
<!-- Generated by graphviz version 2.47.0 (20210316.0004)
 -->
<!-- Title: dependencies Pages: 1 -->
<svg width="504pt" height="211pt"
 viewBox="0.00 0.00 504.00 211.00" xmlns="http://www.w3.org/2000/svg" xmlns:xlink="http://www.w3.org/1999/xlink">
<g id="graph0" class="graph" transform="scale(1 1) rotate(0) translate(4 207)">
<title>dependencies</title>
<polygon fill="white" stroke="transparent" points="-4,4 -4,-207 500,-207 500,4 -4,4"/>
<text text-anchor="start" x="227.01" y="-42.4" font-family="Times-12" font-weight="bold" font-size="14.00">Legend</text>
<polygon fill="#ffffb3" stroke="transparent" points="14,-10 14,-30 34,-30 34,-10 14,-10"/>
<text text-anchor="start" x="37.63" y="-15.4" font-family="Times-12" font-size="14.00"> &#160;Declarations</text>
<polygon fill="#8dd3c7" stroke="transparent" points="127,-10 127,-30 147,-30 147,-10 127,-10"/>
<text text-anchor="start" x="150.73" y="-15.4" font-family="Times-12" font-size="14.00"> &#160;Module</text>
<polygon fill="#80b1d3" stroke="transparent" points="213,-10 213,-30 233,-30 233,-10 213,-10"/>
<text text-anchor="start" x="236.78" y="-15.4" font-family="Times-12" font-size="14.00"> &#160;Bootstrap</text>
<polygon fill="#fdb462" stroke="transparent" points="310,-10 310,-30 330,-30 330,-10 310,-10"/>
<text text-anchor="start" x="333.67" y="-15.4" font-family="Times-12" font-size="14.00"> &#160;Providers</text>
<polygon fill="#fb8072" stroke="transparent" points="406,-10 406,-30 426,-30 426,-10 406,-10"/>
<text text-anchor="start" x="429.73" y="-15.4" font-family="Times-12" font-size="14.00"> &#160;Exports</text>
<g id="clust1" class="cluster">
<title>cluster_SignInModule</title>
<polygon fill="none" stroke="black" stroke-dasharray="1,5" points="32,-70 32,-195 464,-195 464,-70 32,-70"/>
</g>
<g id="clust2" class="cluster">
<title>cluster_SignInModule_declarations</title>
<polygon fill="none" stroke="black" points="322,-78 322,-130 456,-130 456,-78 322,-78"/>
</g>
<g id="clust4" class="cluster">
<title>cluster_SignInModule_imports</title>
<polygon fill="none" stroke="black" points="40,-78 40,-130 314,-130 314,-78 40,-78"/>
</g>
<!-- SignInComponent -->
<g id="node1" class="node">
<title>SignInComponent</title>
<polygon fill="#ffffb3" stroke="black" points="448.17,-122 329.83,-122 329.83,-86 448.17,-86 448.17,-122"/>
<text text-anchor="middle" x="389" y="-99.8" font-family="Times,serif" font-size="14.00">SignInComponent</text>
</g>
<!-- SignInModule -->
<g id="node2" class="node">
<title>SignInModule</title>
<polygon fill="#8dd3c7" stroke="black" points="305.38,-187 302.38,-191 281.38,-191 278.38,-187 208.62,-187 208.62,-151 305.38,-151 305.38,-187"/>
<text text-anchor="middle" x="257" y="-164.8" font-family="Times,serif" font-size="14.00">SignInModule</text>
</g>
<!-- SignInComponent&#45;&gt;SignInModule -->
<g id="edge1" class="edge">
<title>SignInComponent&#45;&gt;SignInModule</title>
<path fill="none" stroke="black" d="M389,-122.11C389,-141.34 389,-169 389,-169 389,-169 315.4,-169 315.4,-169"/>
<polygon fill="black" stroke="black" points="315.4,-165.5 305.4,-169 315.4,-172.5 315.4,-165.5"/>
</g>
<!-- SharedModule -->
<g id="node3" class="node">
<title>SharedModule</title>
<polygon fill="#8dd3c7" stroke="black" points="306.42,-122 303.42,-126 282.42,-126 279.42,-122 207.58,-122 207.58,-86 306.42,-86 306.42,-122"/>
<text text-anchor="middle" x="257" y="-99.8" font-family="Times,serif" font-size="14.00">SharedModule</text>
</g>
<!-- SharedModule&#45;&gt;SignInModule -->
<g id="edge2" class="edge">
<title>SharedModule&#45;&gt;SignInModule</title>
<path fill="none" stroke="black" d="M257,-122.11C257,-122.11 257,-140.99 257,-140.99"/>
<polygon fill="black" stroke="black" points="253.5,-140.99 257,-150.99 260.5,-140.99 253.5,-140.99"/>
</g>
<!-- SignInRoutingModule -->
<g id="node4" class="node">
<title>SignInRoutingModule</title>
<polygon fill="#8dd3c7" stroke="black" points="190,-122 187,-126 166,-126 163,-122 48,-122 48,-86 190,-86 190,-122"/>
<text text-anchor="middle" x="119" y="-99.8" font-family="Times,serif" font-size="14.00">SignInRoutingModule</text>
</g>
<!-- SignInRoutingModule&#45;&gt;SignInModule -->
<g id="edge3" class="edge">
<title>SignInRoutingModule&#45;&gt;SignInModule</title>
<path fill="none" stroke="black" d="M119,-122.11C119,-141.34 119,-169 119,-169 119,-169 198.35,-169 198.35,-169"/>
<polygon fill="black" stroke="black" points="198.35,-172.5 208.35,-169 198.35,-165.5 198.35,-172.5"/>
</g>
</g>
</svg>
