<?xml version="1.0" encoding="UTF-8" standalone="no"?>
<!DOCTYPE svg PUBLIC "-//W3C//DTD SVG 1.1//EN"
 "http://www.w3.org/Graphics/SVG/1.1/DTD/svg11.dtd">
<!-- Generated by graphviz version 2.47.0 (20210316.0004)
 -->
<!-- Title: dependencies Pages: 1 -->
<svg width="604pt" height="211pt"
 viewBox="0.00 0.00 604.00 211.00" xmlns="http://www.w3.org/2000/svg" xmlns:xlink="http://www.w3.org/1999/xlink">
<g id="graph0" class="graph" transform="scale(1 1) rotate(0) translate(4 207)">
<title>dependencies</title>
<polygon fill="white" stroke="transparent" points="-4,4 -4,-207 600,-207 600,4 -4,4"/>
<text text-anchor="start" x="277.01" y="-42.4" font-family="Times-12" font-weight="bold" font-size="14.00">Legend</text>
<polygon fill="#ffffb3" stroke="transparent" points="64,-10 64,-30 84,-30 84,-10 64,-10"/>
<text text-anchor="start" x="87.63" y="-15.4" font-family="Times-12" font-size="14.00"> &#160;Declarations</text>
<polygon fill="#8dd3c7" stroke="transparent" points="177,-10 177,-30 197,-30 197,-10 177,-10"/>
<text text-anchor="start" x="200.73" y="-15.4" font-family="Times-12" font-size="14.00"> &#160;Module</text>
<polygon fill="#80b1d3" stroke="transparent" points="263,-10 263,-30 283,-30 283,-10 263,-10"/>
<text text-anchor="start" x="286.78" y="-15.4" font-family="Times-12" font-size="14.00"> &#160;Bootstrap</text>
<polygon fill="#fdb462" stroke="transparent" points="360,-10 360,-30 380,-30 380,-10 360,-10"/>
<text text-anchor="start" x="383.67" y="-15.4" font-family="Times-12" font-size="14.00"> &#160;Providers</text>
<polygon fill="#fb8072" stroke="transparent" points="456,-10 456,-30 476,-30 476,-10 456,-10"/>
<text text-anchor="start" x="479.73" y="-15.4" font-family="Times-12" font-size="14.00"> &#160;Exports</text>
<g id="clust1" class="cluster">
<title>cluster_UserConfigurationsModule</title>
<polygon fill="none" stroke="black" stroke-dasharray="1,5" points="8,-70 8,-195 588,-195 588,-70 8,-70"/>
</g>
<g id="clust2" class="cluster">
<title>cluster_UserConfigurationsModule_declarations</title>
<polygon fill="none" stroke="black" points="372,-78 372,-130 580,-130 580,-78 372,-78"/>
</g>
<g id="clust4" class="cluster">
<title>cluster_UserConfigurationsModule_imports</title>
<polygon fill="none" stroke="black" points="16,-78 16,-130 364,-130 364,-78 16,-78"/>
</g>
<!-- UserConfigurationsComponent -->
<g id="node1" class="node">
<title>UserConfigurationsComponent</title>
<polygon fill="#ffffb3" stroke="black" points="571.75,-122 380.25,-122 380.25,-86 571.75,-86 571.75,-122"/>
<text text-anchor="middle" x="476" y="-99.8" font-family="Times,serif" font-size="14.00">UserConfigurationsComponent</text>
</g>
<!-- UserConfigurationsModule -->
<g id="node2" class="node">
<title>UserConfigurationsModule</title>
<polygon fill="#8dd3c7" stroke="black" points="391.97,-187 388.97,-191 367.97,-191 364.97,-187 222.03,-187 222.03,-151 391.97,-151 391.97,-187"/>
<text text-anchor="middle" x="307" y="-164.8" font-family="Times,serif" font-size="14.00">UserConfigurationsModule</text>
</g>
<!-- UserConfigurationsComponent&#45;&gt;UserConfigurationsModule -->
<g id="edge1" class="edge">
<title>UserConfigurationsComponent&#45;&gt;UserConfigurationsModule</title>
<path fill="none" stroke="black" d="M386.05,-122.11C386.05,-122.11 386.05,-140.99 386.05,-140.99"/>
<polygon fill="black" stroke="black" points="382.55,-140.99 386.05,-150.99 389.55,-140.99 382.55,-140.99"/>
</g>
<!-- SharedModule -->
<g id="node3" class="node">
<title>SharedModule</title>
<polygon fill="#8dd3c7" stroke="black" points="356.42,-122 353.42,-126 332.42,-126 329.42,-122 257.58,-122 257.58,-86 356.42,-86 356.42,-122"/>
<text text-anchor="middle" x="307" y="-99.8" font-family="Times,serif" font-size="14.00">SharedModule</text>
</g>
<!-- SharedModule&#45;&gt;UserConfigurationsModule -->
<g id="edge2" class="edge">
<title>SharedModule&#45;&gt;UserConfigurationsModule</title>
<path fill="none" stroke="black" d="M307,-122.11C307,-122.11 307,-140.99 307,-140.99"/>
<polygon fill="black" stroke="black" points="303.5,-140.99 307,-150.99 310.5,-140.99 303.5,-140.99"/>
</g>
<!-- UserConfigurationsRoutingModule -->
<g id="node4" class="node">
<title>UserConfigurationsRoutingModule</title>
<polygon fill="#8dd3c7" stroke="black" points="239.58,-122 236.58,-126 215.58,-126 212.58,-122 24.42,-122 24.42,-86 239.58,-86 239.58,-122"/>
<text text-anchor="middle" x="132" y="-99.8" font-family="Times,serif" font-size="14.00">UserConfigurationsRoutingModule</text>
</g>
<!-- UserConfigurationsRoutingModule&#45;&gt;UserConfigurationsModule -->
<g id="edge3" class="edge">
<title>UserConfigurationsRoutingModule&#45;&gt;UserConfigurationsModule</title>
<path fill="none" stroke="black" d="M230.78,-122.11C230.78,-122.11 230.78,-140.99 230.78,-140.99"/>
<polygon fill="black" stroke="black" points="227.28,-140.99 230.78,-150.99 234.28,-140.99 227.28,-140.99"/>
</g>
</g>
</svg>
