<?xml version="1.0" encoding="UTF-8" standalone="no"?>
<!DOCTYPE svg PUBLIC "-//W3C//DTD SVG 1.1//EN"
 "http://www.w3.org/Graphics/SVG/1.1/DTD/svg11.dtd">
<!-- Generated by graphviz version 2.47.0 (20210316.0004)
 -->
<!-- Title: dependencies Pages: 1 -->
<svg width="2414pt" height="284pt"
 viewBox="0.00 0.00 2414.00 284.00" xmlns="http://www.w3.org/2000/svg" xmlns:xlink="http://www.w3.org/1999/xlink">
<g id="graph0" class="graph" transform="scale(1 1) rotate(0) translate(4 280)">
<title>dependencies</title>
<polygon fill="white" stroke="transparent" points="-4,4 -4,-280 2410,-280 2410,4 -4,4"/>
<text text-anchor="start" x="1182.01" y="-42.4" font-family="Times-12" font-weight="bold" font-size="14.00">Legend</text>
<polygon fill="#ffffb3" stroke="transparent" points="969,-10 969,-30 989,-30 989,-10 969,-10"/>
<text text-anchor="start" x="992.63" y="-15.4" font-family="Times-12" font-size="14.00"> &#160;Declarations</text>
<polygon fill="#8dd3c7" stroke="transparent" points="1082,-10 1082,-30 1102,-30 1102,-10 1082,-10"/>
<text text-anchor="start" x="1105.73" y="-15.4" font-family="Times-12" font-size="14.00"> &#160;Module</text>
<polygon fill="#80b1d3" stroke="transparent" points="1168,-10 1168,-30 1188,-30 1188,-10 1168,-10"/>
<text text-anchor="start" x="1191.78" y="-15.4" font-family="Times-12" font-size="14.00"> &#160;Bootstrap</text>
<polygon fill="#fdb462" stroke="transparent" points="1265,-10 1265,-30 1285,-30 1285,-10 1265,-10"/>
<text text-anchor="start" x="1288.67" y="-15.4" font-family="Times-12" font-size="14.00"> &#160;Providers</text>
<polygon fill="#fb8072" stroke="transparent" points="1361,-10 1361,-30 1381,-30 1381,-10 1361,-10"/>
<text text-anchor="start" x="1384.73" y="-15.4" font-family="Times-12" font-size="14.00"> &#160;Exports</text>
<g id="clust1" class="cluster">
<title>cluster_SharedModule</title>
<polygon fill="none" stroke="black" stroke-dasharray="1,5" points="8,-70 8,-268 2398,-268 2398,-70 8,-70"/>
</g>
<g id="clust15" class="cluster">
<title>cluster_SharedModule_exports</title>
<polygon fill="none" stroke="black" points="16,-208 16,-260 2390,-260 2390,-208 16,-208"/>
</g>
<g id="clust14" class="cluster">
<title>cluster_SharedModule_imports</title>
<polygon fill="none" stroke="black" points="2271,-78 2271,-130 2371,-130 2371,-78 2271,-78"/>
</g>
<g id="clust2" class="cluster">
<title>cluster_SharedModule_declarations</title>
<polygon fill="none" stroke="black" points="34,-78 34,-130 2263,-130 2263,-78 34,-78"/>
</g>
<!-- AdsCardsComponent -->
<g id="node1" class="node">
<title>AdsCardsComponent</title>
<polygon fill="#ffffb3" stroke="black" points="2255.04,-122 2118.96,-122 2118.96,-86 2255.04,-86 2255.04,-122"/>
<text text-anchor="middle" x="2187" y="-99.8" font-family="Times,serif" font-size="14.00">AdsCardsComponent</text>
</g>
<!-- SharedModule -->
<g id="node12" class="node">
<title>SharedModule</title>
<polygon fill="#8dd3c7" stroke="black" points="1371.42,-187 1368.42,-191 1347.42,-191 1344.42,-187 1272.58,-187 1272.58,-151 1371.42,-151 1371.42,-187"/>
<text text-anchor="middle" x="1322" y="-164.8" font-family="Times,serif" font-size="14.00">SharedModule</text>
</g>
<!-- AdsCardsComponent&#45;&gt;SharedModule -->
<g id="edge1" class="edge">
<title>AdsCardsComponent&#45;&gt;SharedModule</title>
<path fill="none" stroke="black" d="M2171.54,-122.3C2171.54,-140.27 2171.54,-165 2171.54,-165 2171.54,-165 1381.35,-165 1381.35,-165"/>
<polygon fill="black" stroke="black" points="1381.35,-161.5 1371.35,-165 1381.35,-168.5 1381.35,-161.5"/>
</g>
<!-- CardImgTitleTextComponent -->
<g id="node2" class="node">
<title>CardImgTitleTextComponent</title>
<polygon fill="#ffffb3" stroke="black" points="2100.69,-122 1917.31,-122 1917.31,-86 2100.69,-86 2100.69,-122"/>
<text text-anchor="middle" x="2009" y="-99.8" font-family="Times,serif" font-size="14.00">CardImgTitleTextComponent</text>
</g>
<!-- CardImgTitleTextComponent&#45;&gt;SharedModule -->
<g id="edge2" class="edge">
<title>CardImgTitleTextComponent&#45;&gt;SharedModule</title>
<path fill="none" stroke="black" d="M1968.63,-122.04C1968.63,-138.73 1968.63,-161 1968.63,-161 1968.63,-161 1381.4,-161 1381.4,-161"/>
<polygon fill="black" stroke="black" points="1381.4,-157.5 1371.4,-161 1381.4,-164.5 1381.4,-157.5"/>
</g>
<!-- ChatMessagesComponent -->
<g id="node3" class="node">
<title>ChatMessagesComponent</title>
<polygon fill="#ffffb3" stroke="black" points="1899.2,-122 1736.8,-122 1736.8,-86 1899.2,-86 1899.2,-122"/>
<text text-anchor="middle" x="1818" y="-99.8" font-family="Times,serif" font-size="14.00">ChatMessagesComponent</text>
</g>
<!-- ChatMessagesComponent&#45;&gt;SharedModule -->
<g id="edge3" class="edge">
<title>ChatMessagesComponent&#45;&gt;SharedModule</title>
<path fill="none" stroke="black" d="M1786.3,-122.28C1786.3,-137.95 1786.3,-158 1786.3,-158 1786.3,-158 1381.25,-158 1381.25,-158"/>
<polygon fill="black" stroke="black" points="1381.25,-154.5 1371.25,-158 1381.25,-161.5 1381.25,-154.5"/>
</g>
<!-- FooterComponent -->
<g id="node4" class="node">
<title>FooterComponent</title>
<polygon fill="#ffffb3" stroke="black" points="1718.88,-122 1601.12,-122 1601.12,-86 1718.88,-86 1718.88,-122"/>
<text text-anchor="middle" x="1660" y="-99.8" font-family="Times,serif" font-size="14.00">FooterComponent</text>
</g>
<!-- FooterComponent&#45;&gt;SharedModule -->
<g id="edge4" class="edge">
<title>FooterComponent&#45;&gt;SharedModule</title>
<path fill="none" stroke="black" d="M1648.67,-122.12C1648.67,-136.78 1648.67,-155 1648.67,-155 1648.67,-155 1381.26,-155 1381.26,-155"/>
<polygon fill="black" stroke="black" points="1381.26,-151.5 1371.26,-155 1381.26,-158.5 1381.26,-151.5"/>
</g>
<!-- HeaderCardsInitialPageComponent -->
<g id="node5" class="node">
<title>HeaderCardsInitialPageComponent</title>
<polygon fill="#ffffb3" stroke="black" points="1583.55,-122 1368.45,-122 1368.45,-86 1583.55,-86 1583.55,-122"/>
<text text-anchor="middle" x="1476" y="-99.8" font-family="Times,serif" font-size="14.00">HeaderCardsInitialPageComponent</text>
</g>
<!-- HeaderCardsInitialPageComponent&#45;&gt;SharedModule -->
<g id="edge5" class="edge">
<title>HeaderCardsInitialPageComponent&#45;&gt;SharedModule</title>
<path fill="none" stroke="black" d="M1368.13,-104C1362.66,-104 1359.37,-104 1359.37,-104 1359.37,-104 1359.37,-140.89 1359.37,-140.89"/>
<polygon fill="black" stroke="black" points="1355.87,-140.89 1359.37,-150.89 1362.87,-140.89 1355.87,-140.89"/>
</g>
<!-- HeaderLoggedComponent -->
<g id="node6" class="node">
<title>HeaderLoggedComponent</title>
<polygon fill="#ffffb3" stroke="black" points="1350.01,-122 1185.99,-122 1185.99,-86 1350.01,-86 1350.01,-122"/>
<text text-anchor="middle" x="1268" y="-99.8" font-family="Times,serif" font-size="14.00">HeaderLoggedComponent</text>
</g>
<!-- HeaderLoggedComponent&#45;&gt;SharedModule -->
<g id="edge6" class="edge">
<title>HeaderLoggedComponent&#45;&gt;SharedModule</title>
<path fill="none" stroke="black" d="M1311.52,-122.11C1311.52,-122.11 1311.52,-140.99 1311.52,-140.99"/>
<polygon fill="black" stroke="black" points="1308.02,-140.99 1311.52,-150.99 1315.02,-140.99 1308.02,-140.99"/>
</g>
<!-- MultipleSelectCidsComponent -->
<g id="node7" class="node">
<title>MultipleSelectCidsComponent</title>
<polygon fill="#ffffb3" stroke="black" points="1167.93,-122 978.07,-122 978.07,-86 1167.93,-86 1167.93,-122"/>
<text text-anchor="middle" x="1073" y="-99.8" font-family="Times,serif" font-size="14.00">MultipleSelectCidsComponent</text>
</g>
<!-- MultipleSelectCidsComponent&#45;&gt;SharedModule -->
<g id="edge7" class="edge">
<title>MultipleSelectCidsComponent&#45;&gt;SharedModule</title>
<path fill="none" stroke="black" d="M1104.57,-122.12C1104.57,-136.78 1104.57,-155 1104.57,-155 1104.57,-155 1262.66,-155 1262.66,-155"/>
<polygon fill="black" stroke="black" points="1262.66,-158.5 1272.66,-155 1262.66,-151.5 1262.66,-158.5"/>
</g>
<!-- MultipleSelectDrugsComponent -->
<g id="node8" class="node">
<title>MultipleSelectDrugsComponent</title>
<polygon fill="#ffffb3" stroke="black" points="959.97,-122 762.03,-122 762.03,-86 959.97,-86 959.97,-122"/>
<text text-anchor="middle" x="861" y="-99.8" font-family="Times,serif" font-size="14.00">MultipleSelectDrugsComponent</text>
</g>
<!-- MultipleSelectDrugsComponent&#45;&gt;SharedModule -->
<g id="edge8" class="edge">
<title>MultipleSelectDrugsComponent&#45;&gt;SharedModule</title>
<path fill="none" stroke="black" d="M892.5,-122.28C892.5,-137.95 892.5,-158 892.5,-158 892.5,-158 1262.73,-158 1262.73,-158"/>
<polygon fill="black" stroke="black" points="1262.73,-161.5 1272.73,-158 1262.73,-154.5 1262.73,-161.5"/>
</g>
<!-- MultipleSelectHospitalsComponent -->
<g id="node9" class="node">
<title>MultipleSelectHospitalsComponent</title>
<polygon fill="#ffffb3" stroke="black" points="744.14,-122 527.86,-122 527.86,-86 744.14,-86 744.14,-122"/>
<text text-anchor="middle" x="636" y="-99.8" font-family="Times,serif" font-size="14.00">MultipleSelectHospitalsComponent</text>
</g>
<!-- MultipleSelectHospitalsComponent&#45;&gt;SharedModule -->
<g id="edge9" class="edge">
<title>MultipleSelectHospitalsComponent&#45;&gt;SharedModule</title>
<path fill="none" stroke="black" d="M667.94,-122.04C667.94,-138.73 667.94,-161 667.94,-161 667.94,-161 1262.57,-161 1262.57,-161"/>
<polygon fill="black" stroke="black" points="1262.57,-164.5 1272.57,-161 1262.57,-157.5 1262.57,-164.5"/>
</g>
<!-- MultipleSelectMedicalProceduresComponent -->
<g id="node10" class="node">
<title>MultipleSelectMedicalProceduresComponent</title>
<polygon fill="#ffffb3" stroke="black" points="509.82,-122 238.18,-122 238.18,-86 509.82,-86 509.82,-122"/>
<text text-anchor="middle" x="374" y="-99.8" font-family="Times,serif" font-size="14.00">MultipleSelectMedicalProceduresComponent</text>
</g>
<!-- MultipleSelectMedicalProceduresComponent&#45;&gt;SharedModule -->
<g id="edge10" class="edge">
<title>MultipleSelectMedicalProceduresComponent&#45;&gt;SharedModule</title>
<path fill="none" stroke="black" d="M504.79,-122.3C504.79,-140.27 504.79,-165 504.79,-165 504.79,-165 1262.72,-165 1262.72,-165"/>
<polygon fill="black" stroke="black" points="1262.72,-168.5 1272.72,-165 1262.72,-161.5 1262.72,-168.5"/>
</g>
<!-- PrincipalLoadingComponent -->
<g id="node11" class="node">
<title>PrincipalLoadingComponent</title>
<polygon fill="#ffffb3" stroke="black" points="220.04,-122 41.96,-122 41.96,-86 220.04,-86 220.04,-122"/>
<text text-anchor="middle" x="131" y="-99.8" font-family="Times,serif" font-size="14.00">PrincipalLoadingComponent</text>
</g>
<!-- PrincipalLoadingComponent&#45;&gt;SharedModule -->
<g id="edge11" class="edge">
<title>PrincipalLoadingComponent&#45;&gt;SharedModule</title>
<path fill="none" stroke="black" d="M213.14,-122.17C213.14,-141.09 213.14,-168 213.14,-168 213.14,-168 1262.56,-168 1262.56,-168"/>
<polygon fill="black" stroke="black" points="1262.56,-171.5 1272.56,-168 1262.56,-164.5 1262.56,-171.5"/>
</g>
<!-- AdsCardsComponent  -->
<g id="node14" class="node">
<title>AdsCardsComponent </title>
<polygon fill="#fb8072" stroke="black" points="2382.04,-252 2241.96,-252 2241.96,-216 2382.04,-216 2382.04,-252"/>
<text text-anchor="middle" x="2312" y="-229.8" font-family="Times,serif" font-size="14.00">AdsCardsComponent </text>
</g>
<!-- SharedModule&#45;&gt;AdsCardsComponent  -->
<g id="edge13" class="edge">
<title>SharedModule&#45;&gt;AdsCardsComponent </title>
<path fill="none" stroke="black" stroke-dasharray="5,2" d="M1371.49,-171C1563.51,-171 2248.62,-171 2248.62,-171 2248.62,-171 2248.62,-205.78 2248.62,-205.78"/>
<polygon fill="black" stroke="black" points="2245.13,-205.78 2248.62,-215.78 2252.13,-205.78 2245.13,-205.78"/>
</g>
<!-- CardImgTitleTextComponent  -->
<g id="node15" class="node">
<title>CardImgTitleTextComponent </title>
<polygon fill="#fb8072" stroke="black" points="2224.19,-252 2037.81,-252 2037.81,-216 2224.19,-216 2224.19,-252"/>
<text text-anchor="middle" x="2131" y="-229.8" font-family="Times,serif" font-size="14.00">CardImgTitleTextComponent </text>
</g>
<!-- SharedModule&#45;&gt;CardImgTitleTextComponent  -->
<g id="edge14" class="edge">
<title>SharedModule&#45;&gt;CardImgTitleTextComponent </title>
<path fill="none" stroke="black" stroke-dasharray="5,2" d="M1371.31,-174C1537.85,-174 2069.12,-174 2069.12,-174 2069.12,-174 2069.12,-206 2069.12,-206"/>
<polygon fill="black" stroke="black" points="2065.63,-206 2069.12,-216 2072.63,-206 2065.63,-206"/>
</g>
<!-- ChatMessagesComponent  -->
<g id="node16" class="node">
<title>ChatMessagesComponent </title>
<polygon fill="#fb8072" stroke="black" points="2019.7,-252 1854.3,-252 1854.3,-216 2019.7,-216 2019.7,-252"/>
<text text-anchor="middle" x="1937" y="-229.8" font-family="Times,serif" font-size="14.00">ChatMessagesComponent </text>
</g>
<!-- SharedModule&#45;&gt;ChatMessagesComponent  -->
<g id="edge15" class="edge">
<title>SharedModule&#45;&gt;ChatMessagesComponent </title>
<path fill="none" stroke="black" stroke-dasharray="5,2" d="M1371.22,-178C1506.96,-178 1876.62,-178 1876.62,-178 1876.62,-178 1876.62,-205.97 1876.62,-205.97"/>
<polygon fill="black" stroke="black" points="1873.13,-205.97 1876.62,-215.97 1880.13,-205.97 1873.13,-205.97"/>
</g>
<!-- FooterComponent  -->
<g id="node17" class="node">
<title>FooterComponent </title>
<polygon fill="#fb8072" stroke="black" points="1835.88,-252 1714.12,-252 1714.12,-216 1835.88,-216 1835.88,-252"/>
<text text-anchor="middle" x="1775" y="-229.8" font-family="Times,serif" font-size="14.00">FooterComponent </text>
</g>
<!-- SharedModule&#45;&gt;FooterComponent  -->
<g id="edge16" class="edge">
<title>SharedModule&#45;&gt;FooterComponent </title>
<path fill="none" stroke="black" stroke-dasharray="5,2" d="M1371.37,-181C1479.55,-181 1727.92,-181 1727.92,-181 1727.92,-181 1727.92,-205.76 1727.92,-205.76"/>
<polygon fill="black" stroke="black" points="1724.42,-205.76 1727.92,-215.76 1731.42,-205.76 1724.42,-205.76"/>
</g>
<!-- HeaderCardsInitialPageComponent  -->
<g id="node18" class="node">
<title>HeaderCardsInitialPageComponent </title>
<polygon fill="#fb8072" stroke="black" points="1696.05,-252 1477.95,-252 1477.95,-216 1696.05,-216 1696.05,-252"/>
<text text-anchor="middle" x="1587" y="-229.8" font-family="Times,serif" font-size="14.00">HeaderCardsInitialPageComponent </text>
</g>
<!-- SharedModule&#45;&gt;HeaderCardsInitialPageComponent  -->
<g id="edge17" class="edge">
<title>SharedModule&#45;&gt;HeaderCardsInitialPageComponent </title>
<path fill="none" stroke="black" stroke-dasharray="5,2" d="M1371.44,-184C1433.13,-184 1530.62,-184 1530.62,-184 1530.62,-184 1530.62,-205.95 1530.62,-205.95"/>
<polygon fill="black" stroke="black" points="1527.13,-205.95 1530.62,-215.95 1534.13,-205.95 1527.13,-205.95"/>
</g>
<!-- HeaderLoggedComponent  -->
<g id="node19" class="node">
<title>HeaderLoggedComponent </title>
<polygon fill="#fb8072" stroke="black" points="1460.01,-252 1291.99,-252 1291.99,-216 1460.01,-216 1460.01,-252"/>
<text text-anchor="middle" x="1376" y="-229.8" font-family="Times,serif" font-size="14.00">HeaderLoggedComponent </text>
</g>
<!-- SharedModule&#45;&gt;HeaderLoggedComponent  -->
<g id="edge18" class="edge">
<title>SharedModule&#45;&gt;HeaderLoggedComponent </title>
<path fill="none" stroke="black" stroke-dasharray="5,2" d="M1331.6,-187.11C1331.6,-187.11 1331.6,-205.99 1331.6,-205.99"/>
<polygon fill="black" stroke="black" points="1328.1,-205.99 1331.6,-215.99 1335.1,-205.99 1328.1,-205.99"/>
</g>
<!-- IconModule  -->
<g id="node20" class="node">
<title>IconModule </title>
<polygon fill="#fb8072" stroke="black" points="1273.93,-252 1186.07,-252 1186.07,-216 1273.93,-216 1273.93,-252"/>
<text text-anchor="middle" x="1230" y="-229.8" font-family="Times,serif" font-size="14.00">IconModule </text>
</g>
<!-- SharedModule&#45;&gt;IconModule  -->
<g id="edge19" class="edge">
<title>SharedModule&#45;&gt;IconModule </title>
<path fill="none" stroke="black" stroke-dasharray="5,2" d="M1282.98,-187.11C1282.98,-206.34 1282.98,-234 1282.98,-234 1282.98,-234 1282.1,-234 1282.1,-234"/>
<polygon fill="black" stroke="black" points="1284.23,-230.5 1274.23,-234 1284.23,-237.5 1284.23,-230.5"/>
</g>
<!-- MultipleSelectCidsComponent  -->
<g id="node21" class="node">
<title>MultipleSelectCidsComponent </title>
<polygon fill="#fb8072" stroke="black" points="1168.43,-252 975.57,-252 975.57,-216 1168.43,-216 1168.43,-252"/>
<text text-anchor="middle" x="1072" y="-229.8" font-family="Times,serif" font-size="14.00">MultipleSelectCidsComponent </text>
</g>
<!-- SharedModule&#45;&gt;MultipleSelectCidsComponent  -->
<g id="edge20" class="edge">
<title>SharedModule&#45;&gt;MultipleSelectCidsComponent </title>
<path fill="none" stroke="black" stroke-dasharray="5,2" d="M1272.49,-184C1191.94,-184 1041.43,-184 1041.43,-184 1041.43,-184 1041.43,-205.95 1041.43,-205.95"/>
<polygon fill="black" stroke="black" points="1037.93,-205.95 1041.43,-215.95 1044.93,-205.95 1037.93,-205.95"/>
</g>
<!-- MultipleSelectDrugsComponent  -->
<g id="node22" class="node">
<title>MultipleSelectDrugsComponent </title>
<polygon fill="#fb8072" stroke="black" points="957.97,-252 756.03,-252 756.03,-216 957.97,-216 957.97,-252"/>
<text text-anchor="middle" x="857" y="-229.8" font-family="Times,serif" font-size="14.00">MultipleSelectDrugsComponent </text>
</g>
<!-- SharedModule&#45;&gt;MultipleSelectDrugsComponent  -->
<g id="edge21" class="edge">
<title>SharedModule&#45;&gt;MultipleSelectDrugsComponent </title>
<path fill="none" stroke="black" stroke-dasharray="5,2" d="M1272.75,-181C1147.61,-181 827.25,-181 827.25,-181 827.25,-181 827.25,-205.76 827.25,-205.76"/>
<polygon fill="black" stroke="black" points="823.75,-205.76 827.25,-215.76 830.75,-205.76 823.75,-205.76"/>
</g>
<!-- MultipleSelectHospitalsComponent  -->
<g id="node23" class="node">
<title>MultipleSelectHospitalsComponent </title>
<polygon fill="#fb8072" stroke="black" points="738.14,-252 517.86,-252 517.86,-216 738.14,-216 738.14,-252"/>
<text text-anchor="middle" x="628" y="-229.8" font-family="Times,serif" font-size="14.00">MultipleSelectHospitalsComponent </text>
</g>
<!-- SharedModule&#45;&gt;MultipleSelectHospitalsComponent  -->
<g id="edge22" class="edge">
<title>SharedModule&#45;&gt;MultipleSelectHospitalsComponent </title>
<path fill="none" stroke="black" stroke-dasharray="5,2" d="M1272.51,-178C1109.2,-178 597.81,-178 597.81,-178 597.81,-178 597.81,-205.97 597.81,-205.97"/>
<polygon fill="black" stroke="black" points="594.31,-205.97 597.81,-215.97 601.31,-205.97 594.31,-205.97"/>
</g>
<!-- MultipleSelectMedicalProceduresComponent  -->
<g id="node24" class="node">
<title>MultipleSelectMedicalProceduresComponent </title>
<polygon fill="#fb8072" stroke="black" points="499.82,-252 224.18,-252 224.18,-216 499.82,-216 499.82,-252"/>
<text text-anchor="middle" x="362" y="-229.8" font-family="Times,serif" font-size="14.00">MultipleSelectMedicalProceduresComponent </text>
</g>
<!-- SharedModule&#45;&gt;MultipleSelectMedicalProceduresComponent  -->
<g id="edge23" class="edge">
<title>SharedModule&#45;&gt;MultipleSelectMedicalProceduresComponent </title>
<path fill="none" stroke="black" stroke-dasharray="5,2" d="M1272.76,-174C1077.59,-174 368.88,-174 368.88,-174 368.88,-174 368.88,-206 368.88,-206"/>
<polygon fill="black" stroke="black" points="365.38,-206 368.88,-216 372.38,-206 365.38,-206"/>
</g>
<!-- PrincipalLoadingComponent  -->
<g id="node25" class="node">
<title>PrincipalLoadingComponent </title>
<polygon fill="#fb8072" stroke="black" points="206.03,-252 23.97,-252 23.97,-216 206.03,-216 206.03,-252"/>
<text text-anchor="middle" x="115" y="-229.8" font-family="Times,serif" font-size="14.00">PrincipalLoadingComponent </text>
</g>
<!-- SharedModule&#45;&gt;PrincipalLoadingComponent  -->
<g id="edge24" class="edge">
<title>SharedModule&#45;&gt;PrincipalLoadingComponent </title>
<path fill="none" stroke="black" stroke-dasharray="5,2" d="M1272.42,-171C1046.32,-171 123.88,-171 123.88,-171 123.88,-171 123.88,-205.78 123.88,-205.78"/>
<polygon fill="black" stroke="black" points="120.38,-205.78 123.88,-215.78 127.38,-205.78 120.38,-205.78"/>
</g>
<!-- IconModule -->
<g id="node13" class="node">
<title>IconModule</title>
<polygon fill="#8dd3c7" stroke="black" points="2363.43,-122 2360.43,-126 2339.43,-126 2336.43,-122 2278.57,-122 2278.57,-86 2363.43,-86 2363.43,-122"/>
<text text-anchor="middle" x="2321" y="-99.8" font-family="Times,serif" font-size="14.00">IconModule</text>
</g>
<!-- IconModule&#45;&gt;SharedModule -->
<g id="edge12" class="edge">
<title>IconModule&#45;&gt;SharedModule</title>
<path fill="none" stroke="black" d="M2321,-122.17C2321,-141.09 2321,-168 2321,-168 2321,-168 1381.54,-168 1381.54,-168"/>
<polygon fill="black" stroke="black" points="1381.54,-164.5 1371.54,-168 1381.54,-171.5 1381.54,-164.5"/>
</g>
</g>
</svg>
