<?xml version="1.0" encoding="UTF-8" standalone="no"?>
<!DOCTYPE svg PUBLIC "-//W3C//DTD SVG 1.1//EN"
 "http://www.w3.org/Graphics/SVG/1.1/DTD/svg11.dtd">
<!-- Generated by graphviz version 2.47.0 (20210316.0004)
 -->
<!-- Title: dependencies Pages: 1 -->
<svg width="2414pt" height="284pt"
 viewBox="0.00 0.00 2414.00 284.00" xmlns="http://www.w3.org/2000/svg" xmlns:xlink="http://www.w3.org/1999/xlink">
<g id="graph0" class="graph" transform="scale(1 1) rotate(0) translate(4 280)">
<title>dependencies</title>
<polygon fill="white" stroke="transparent" points="-4,4 -4,-280 2410,-280 2410,4 -4,4"/>
<text text-anchor="start" x="1182.01" y="-42.4" font-family="Times-12" font-weight="bold" font-size="14.00">Legend</text>
<polygon fill="#ffffb3" stroke="transparent" points="969,-10 969,-30 989,-30 989,-10 969,-10"/>
<text text-anchor="start" x="992.63" y="-15.4" font-family="Times-12" font-size="14.00"> &#160;Declarations</text>
<polygon fill="#8dd3c7" stroke="transparent" points="1082,-10 1082,-30 1102,-30 1102,-10 1082,-10"/>
<text text-anchor="start" x="1105.73" y="-15.4" font-family="Times-12" font-size="14.00"> &#160;Module</text>
<polygon fill="#80b1d3" stroke="transparent" points="1168,-10 1168,-30 1188,-30 1188,-10 1168,-10"/>
<text text-anchor="start" x="1191.78" y="-15.4" font-family="Times-12" font-size="14.00"> &#160;Bootstrap</text>
<polygon fill="#fdb462" stroke="transparent" points="1265,-10 1265,-30 1285,-30 1285,-10 1265,-10"/>
<text text-anchor="start" x="1288.67" y="-15.4" font-family="Times-12" font-size="14.00"> &#160;Providers</text>
<polygon fill="#fb8072" stroke="transparent" points="1361,-10 1361,-30 1381,-30 1381,-10 1361,-10"/>
<text text-anchor="start" x="1384.73" y="-15.4" font-family="Times-12" font-size="14.00"> &#160;Exports</text>
<g id="clust1" class="cluster">
<title>cluster_SharedModule</title>
<polygon fill="none" stroke="black" stroke-dasharray="1,5" points="8,-70 8,-268 2398,-268 2398,-70 8,-70"/>
</g>
<g id="clust2" class="cluster">
<title>cluster_SharedModule_declarations</title>
<polygon fill="none" stroke="black" points="143,-78 143,-130 2372,-130 2372,-78 143,-78"/>
</g>
<g id="clust14" class="cluster">
<title>cluster_SharedModule_imports</title>
<polygon fill="none" stroke="black" points="35,-78 35,-130 135,-130 135,-78 35,-78"/>
</g>
<g id="clust15" class="cluster">
<title>cluster_SharedModule_exports</title>
<polygon fill="none" stroke="black" points="16,-208 16,-260 2390,-260 2390,-208 16,-208"/>
</g>
<!-- AdsCardsComponent -->
<g id="node1" class="node">
<title>AdsCardsComponent</title>
<polygon fill="#ffffb3" stroke="black" points="2364.04,-122 2227.96,-122 2227.96,-86 2364.04,-86 2364.04,-122"/>
<text text-anchor="middle" x="2296" y="-99.8" font-family="Times,serif" font-size="14.00">AdsCardsComponent</text>
</g>
<!-- SharedModule -->
<g id="node12" class="node">
<title>SharedModule</title>
<polygon fill="#8dd3c7" stroke="black" points="1352.42,-187 1349.42,-191 1328.42,-191 1325.42,-187 1253.58,-187 1253.58,-151 1352.42,-151 1352.42,-187"/>
<text text-anchor="middle" x="1303" y="-164.8" font-family="Times,serif" font-size="14.00">SharedModule</text>
</g>
<!-- AdsCardsComponent&#45;&gt;SharedModule -->
<g id="edge1" class="edge">
<title>AdsCardsComponent&#45;&gt;SharedModule</title>
<path fill="none" stroke="black" d="M2234.86,-122.17C2234.86,-141.09 2234.86,-168 2234.86,-168 2234.86,-168 1362.44,-168 1362.44,-168"/>
<polygon fill="black" stroke="black" points="1362.44,-164.5 1352.44,-168 1362.44,-171.5 1362.44,-164.5"/>
</g>
<!-- CardImgTitleTextComponent -->
<g id="node2" class="node">
<title>CardImgTitleTextComponent</title>
<polygon fill="#ffffb3" stroke="black" points="2209.69,-122 2026.31,-122 2026.31,-86 2209.69,-86 2209.69,-122"/>
<text text-anchor="middle" x="2118" y="-99.8" font-family="Times,serif" font-size="14.00">CardImgTitleTextComponent</text>
</g>
<!-- CardImgTitleTextComponent&#45;&gt;SharedModule -->
<g id="edge2" class="edge">
<title>CardImgTitleTextComponent&#45;&gt;SharedModule</title>
<path fill="none" stroke="black" d="M2032.03,-122.3C2032.03,-140.27 2032.03,-165 2032.03,-165 2032.03,-165 1362.25,-165 1362.25,-165"/>
<polygon fill="black" stroke="black" points="1362.25,-161.5 1352.25,-165 1362.25,-168.5 1362.25,-161.5"/>
</g>
<!-- ChatMessagesComponent -->
<g id="node3" class="node">
<title>ChatMessagesComponent</title>
<polygon fill="#ffffb3" stroke="black" points="2008.2,-122 1845.8,-122 1845.8,-86 2008.2,-86 2008.2,-122"/>
<text text-anchor="middle" x="1927" y="-99.8" font-family="Times,serif" font-size="14.00">ChatMessagesComponent</text>
</g>
<!-- ChatMessagesComponent&#45;&gt;SharedModule -->
<g id="edge3" class="edge">
<title>ChatMessagesComponent&#45;&gt;SharedModule</title>
<path fill="none" stroke="black" d="M1850.03,-122.04C1850.03,-138.73 1850.03,-161 1850.03,-161 1850.03,-161 1362.51,-161 1362.51,-161"/>
<polygon fill="black" stroke="black" points="1362.51,-157.5 1352.51,-161 1362.51,-164.5 1362.51,-157.5"/>
</g>
<!-- FooterComponent -->
<g id="node4" class="node">
<title>FooterComponent</title>
<polygon fill="#ffffb3" stroke="black" points="1827.88,-122 1710.12,-122 1710.12,-86 1827.88,-86 1827.88,-122"/>
<text text-anchor="middle" x="1769" y="-99.8" font-family="Times,serif" font-size="14.00">FooterComponent</text>
</g>
<!-- FooterComponent&#45;&gt;SharedModule -->
<g id="edge4" class="edge">
<title>FooterComponent&#45;&gt;SharedModule</title>
<path fill="none" stroke="black" d="M1790.06,-122.28C1790.06,-137.95 1790.06,-158 1790.06,-158 1790.06,-158 1362.38,-158 1362.38,-158"/>
<polygon fill="black" stroke="black" points="1362.38,-154.5 1352.38,-158 1362.38,-161.5 1362.38,-154.5"/>
</g>
<!-- HeaderCardsInitialPageComponent -->
<g id="node5" class="node">
<title>HeaderCardsInitialPageComponent</title>
<polygon fill="#ffffb3" stroke="black" points="1692.55,-122 1477.45,-122 1477.45,-86 1692.55,-86 1692.55,-122"/>
<text text-anchor="middle" x="1585" y="-99.8" font-family="Times,serif" font-size="14.00">HeaderCardsInitialPageComponent</text>
</g>
<!-- HeaderCardsInitialPageComponent&#45;&gt;SharedModule -->
<g id="edge5" class="edge">
<title>HeaderCardsInitialPageComponent&#45;&gt;SharedModule</title>
<path fill="none" stroke="black" d="M1620.92,-122.12C1620.92,-136.78 1620.92,-155 1620.92,-155 1620.92,-155 1362.33,-155 1362.33,-155"/>
<polygon fill="black" stroke="black" points="1362.33,-151.5 1352.33,-155 1362.33,-158.5 1362.33,-151.5"/>
</g>
<!-- HeaderLoggedComponent -->
<g id="node6" class="node">
<title>HeaderLoggedComponent</title>
<polygon fill="#ffffb3" stroke="black" points="1459.01,-122 1294.99,-122 1294.99,-86 1459.01,-86 1459.01,-122"/>
<text text-anchor="middle" x="1377" y="-99.8" font-family="Times,serif" font-size="14.00">HeaderLoggedComponent</text>
</g>
<!-- HeaderLoggedComponent&#45;&gt;SharedModule -->
<g id="edge6" class="edge">
<title>HeaderLoggedComponent&#45;&gt;SharedModule</title>
<path fill="none" stroke="black" d="M1323.48,-122.11C1323.48,-122.11 1323.48,-140.99 1323.48,-140.99"/>
<polygon fill="black" stroke="black" points="1319.98,-140.99 1323.48,-150.99 1326.98,-140.99 1319.98,-140.99"/>
</g>
<!-- MultipleSelectCidsComponent -->
<g id="node7" class="node">
<title>MultipleSelectCidsComponent</title>
<polygon fill="#ffffb3" stroke="black" points="1276.93,-122 1087.07,-122 1087.07,-86 1276.93,-86 1276.93,-122"/>
<text text-anchor="middle" x="1182" y="-99.8" font-family="Times,serif" font-size="14.00">MultipleSelectCidsComponent</text>
</g>
<!-- MultipleSelectCidsComponent&#45;&gt;SharedModule -->
<g id="edge7" class="edge">
<title>MultipleSelectCidsComponent&#45;&gt;SharedModule</title>
<path fill="none" stroke="black" d="M1265.25,-122.11C1265.25,-122.11 1265.25,-140.99 1265.25,-140.99"/>
<polygon fill="black" stroke="black" points="1261.75,-140.99 1265.25,-150.99 1268.75,-140.99 1261.75,-140.99"/>
</g>
<!-- MultipleSelectDrugsComponent -->
<g id="node8" class="node">
<title>MultipleSelectDrugsComponent</title>
<polygon fill="#ffffb3" stroke="black" points="1068.97,-122 871.03,-122 871.03,-86 1068.97,-86 1068.97,-122"/>
<text text-anchor="middle" x="970" y="-99.8" font-family="Times,serif" font-size="14.00">MultipleSelectDrugsComponent</text>
</g>
<!-- MultipleSelectDrugsComponent&#45;&gt;SharedModule -->
<g id="edge8" class="edge">
<title>MultipleSelectDrugsComponent&#45;&gt;SharedModule</title>
<path fill="none" stroke="black" d="M1022.26,-122.12C1022.26,-136.78 1022.26,-155 1022.26,-155 1022.26,-155 1243.78,-155 1243.78,-155"/>
<polygon fill="black" stroke="black" points="1243.78,-158.5 1253.78,-155 1243.78,-151.5 1243.78,-158.5"/>
</g>
<!-- MultipleSelectHospitalsComponent -->
<g id="node9" class="node">
<title>MultipleSelectHospitalsComponent</title>
<polygon fill="#ffffb3" stroke="black" points="853.14,-122 636.86,-122 636.86,-86 853.14,-86 853.14,-122"/>
<text text-anchor="middle" x="745" y="-99.8" font-family="Times,serif" font-size="14.00">MultipleSelectHospitalsComponent</text>
</g>
<!-- MultipleSelectHospitalsComponent&#45;&gt;SharedModule -->
<g id="edge9" class="edge">
<title>MultipleSelectHospitalsComponent&#45;&gt;SharedModule</title>
<path fill="none" stroke="black" d="M804.79,-122.28C804.79,-137.95 804.79,-158 804.79,-158 804.79,-158 1243.41,-158 1243.41,-158"/>
<polygon fill="black" stroke="black" points="1243.41,-161.5 1253.41,-158 1243.41,-154.5 1243.41,-161.5"/>
</g>
<!-- MultipleSelectMedicalProceduresComponent -->
<g id="node10" class="node">
<title>MultipleSelectMedicalProceduresComponent</title>
<polygon fill="#ffffb3" stroke="black" points="618.82,-122 347.18,-122 347.18,-86 618.82,-86 618.82,-122"/>
<text text-anchor="middle" x="483" y="-99.8" font-family="Times,serif" font-size="14.00">MultipleSelectMedicalProceduresComponent</text>
</g>
<!-- MultipleSelectMedicalProceduresComponent&#45;&gt;SharedModule -->
<g id="edge10" class="edge">
<title>MultipleSelectMedicalProceduresComponent&#45;&gt;SharedModule</title>
<path fill="none" stroke="black" d="M568.42,-122.04C568.42,-138.73 568.42,-161 568.42,-161 568.42,-161 1243.66,-161 1243.66,-161"/>
<polygon fill="black" stroke="black" points="1243.66,-164.5 1253.66,-161 1243.66,-157.5 1243.66,-164.5"/>
</g>
<!-- PrincipalLoadingComponent -->
<g id="node11" class="node">
<title>PrincipalLoadingComponent</title>
<polygon fill="#ffffb3" stroke="black" points="329.04,-122 150.96,-122 150.96,-86 329.04,-86 329.04,-122"/>
<text text-anchor="middle" x="240" y="-99.8" font-family="Times,serif" font-size="14.00">PrincipalLoadingComponent</text>
</g>
<!-- PrincipalLoadingComponent&#45;&gt;SharedModule -->
<g id="edge11" class="edge">
<title>PrincipalLoadingComponent&#45;&gt;SharedModule</title>
<path fill="none" stroke="black" d="M276.8,-122.3C276.8,-140.27 276.8,-165 276.8,-165 276.8,-165 1243.5,-165 1243.5,-165"/>
<polygon fill="black" stroke="black" points="1243.5,-168.5 1253.5,-165 1243.5,-161.5 1243.5,-168.5"/>
</g>
<!-- AdsCardsComponent  -->
<g id="node14" class="node">
<title>AdsCardsComponent </title>
<polygon fill="#fb8072" stroke="black" points="2382.04,-252 2241.96,-252 2241.96,-216 2382.04,-216 2382.04,-252"/>
<text text-anchor="middle" x="2312" y="-229.8" font-family="Times,serif" font-size="14.00">AdsCardsComponent </text>
</g>
<!-- SharedModule&#45;&gt;AdsCardsComponent  -->
<g id="edge13" class="edge">
<title>SharedModule&#45;&gt;AdsCardsComponent </title>
<path fill="none" stroke="black" stroke-dasharray="5,2" d="M1352.26,-171C1553.56,-171 2303.12,-171 2303.12,-171 2303.12,-171 2303.12,-205.78 2303.12,-205.78"/>
<polygon fill="black" stroke="black" points="2299.63,-205.78 2303.12,-215.78 2306.63,-205.78 2299.63,-205.78"/>
</g>
<!-- CardImgTitleTextComponent  -->
<g id="node15" class="node">
<title>CardImgTitleTextComponent </title>
<polygon fill="#fb8072" stroke="black" points="2224.19,-252 2037.81,-252 2037.81,-216 2224.19,-216 2224.19,-252"/>
<text text-anchor="middle" x="2131" y="-229.8" font-family="Times,serif" font-size="14.00">CardImgTitleTextComponent </text>
</g>
<!-- SharedModule&#45;&gt;CardImgTitleTextComponent  -->
<g id="edge14" class="edge">
<title>SharedModule&#45;&gt;CardImgTitleTextComponent </title>
<path fill="none" stroke="black" stroke-dasharray="5,2" d="M1352.49,-174C1529.91,-174 2123.62,-174 2123.62,-174 2123.62,-174 2123.62,-206 2123.62,-206"/>
<polygon fill="black" stroke="black" points="2120.13,-206 2123.62,-216 2127.13,-206 2120.13,-206"/>
</g>
<!-- ChatMessagesComponent  -->
<g id="node16" class="node">
<title>ChatMessagesComponent </title>
<polygon fill="#fb8072" stroke="black" points="2019.7,-252 1854.3,-252 1854.3,-216 2019.7,-216 2019.7,-252"/>
<text text-anchor="middle" x="1937" y="-229.8" font-family="Times,serif" font-size="14.00">ChatMessagesComponent </text>
</g>
<!-- SharedModule&#45;&gt;ChatMessagesComponent  -->
<g id="edge15" class="edge">
<title>SharedModule&#45;&gt;ChatMessagesComponent </title>
<path fill="none" stroke="black" stroke-dasharray="5,2" d="M1352.29,-178C1500.36,-178 1931.12,-178 1931.12,-178 1931.12,-178 1931.12,-205.97 1931.12,-205.97"/>
<polygon fill="black" stroke="black" points="1927.63,-205.97 1931.12,-215.97 1934.63,-205.97 1927.63,-205.97"/>
</g>
<!-- FooterComponent  -->
<g id="node17" class="node">
<title>FooterComponent </title>
<polygon fill="#fb8072" stroke="black" points="1835.88,-252 1714.12,-252 1714.12,-216 1835.88,-216 1835.88,-252"/>
<text text-anchor="middle" x="1775" y="-229.8" font-family="Times,serif" font-size="14.00">FooterComponent </text>
</g>
<!-- SharedModule&#45;&gt;FooterComponent  -->
<g id="edge16" class="edge">
<title>SharedModule&#45;&gt;FooterComponent </title>
<path fill="none" stroke="black" stroke-dasharray="5,2" d="M1352.36,-181C1469.04,-181 1752.19,-181 1752.19,-181 1752.19,-181 1752.19,-205.76 1752.19,-205.76"/>
<polygon fill="black" stroke="black" points="1748.69,-205.76 1752.19,-215.76 1755.69,-205.76 1748.69,-205.76"/>
</g>
<!-- HeaderCardsInitialPageComponent  -->
<g id="node18" class="node">
<title>HeaderCardsInitialPageComponent </title>
<polygon fill="#fb8072" stroke="black" points="1696.05,-252 1477.95,-252 1477.95,-216 1696.05,-216 1696.05,-252"/>
<text text-anchor="middle" x="1587" y="-229.8" font-family="Times,serif" font-size="14.00">HeaderCardsInitialPageComponent </text>
</g>
<!-- SharedModule&#45;&gt;HeaderCardsInitialPageComponent  -->
<g id="edge17" class="edge">
<title>SharedModule&#45;&gt;HeaderCardsInitialPageComponent </title>
<path fill="none" stroke="black" stroke-dasharray="5,2" d="M1352.26,-184C1424.14,-184 1549.33,-184 1549.33,-184 1549.33,-184 1549.33,-205.95 1549.33,-205.95"/>
<polygon fill="black" stroke="black" points="1545.83,-205.95 1549.33,-215.95 1552.83,-205.95 1545.83,-205.95"/>
</g>
<!-- HeaderLoggedComponent  -->
<g id="node19" class="node">
<title>HeaderLoggedComponent </title>
<polygon fill="#fb8072" stroke="black" points="1460.01,-252 1291.99,-252 1291.99,-216 1460.01,-216 1460.01,-252"/>
<text text-anchor="middle" x="1376" y="-229.8" font-family="Times,serif" font-size="14.00">HeaderLoggedComponent </text>
</g>
<!-- SharedModule&#45;&gt;HeaderLoggedComponent  -->
<g id="edge18" class="edge">
<title>SharedModule&#45;&gt;HeaderLoggedComponent </title>
<path fill="none" stroke="black" stroke-dasharray="5,2" d="M1322.1,-187.11C1322.1,-187.11 1322.1,-205.99 1322.1,-205.99"/>
<polygon fill="black" stroke="black" points="1318.6,-205.99 1322.1,-215.99 1325.6,-205.99 1318.6,-205.99"/>
</g>
<!-- IconModule  -->
<g id="node20" class="node">
<title>IconModule </title>
<polygon fill="#fb8072" stroke="black" points="1273.93,-252 1186.07,-252 1186.07,-216 1273.93,-216 1273.93,-252"/>
<text text-anchor="middle" x="1230" y="-229.8" font-family="Times,serif" font-size="14.00">IconModule </text>
</g>
<!-- SharedModule&#45;&gt;IconModule  -->
<g id="edge19" class="edge">
<title>SharedModule&#45;&gt;IconModule </title>
<path fill="none" stroke="black" stroke-dasharray="5,2" d="M1263.88,-187.11C1263.88,-187.11 1263.88,-205.99 1263.88,-205.99"/>
<polygon fill="black" stroke="black" points="1260.38,-205.99 1263.88,-215.99 1267.38,-205.99 1260.38,-205.99"/>
</g>
<!-- MultipleSelectCidsComponent  -->
<g id="node21" class="node">
<title>MultipleSelectCidsComponent </title>
<polygon fill="#fb8072" stroke="black" points="1168.43,-252 975.57,-252 975.57,-216 1168.43,-216 1168.43,-252"/>
<text text-anchor="middle" x="1072" y="-229.8" font-family="Times,serif" font-size="14.00">MultipleSelectCidsComponent </text>
</g>
<!-- SharedModule&#45;&gt;MultipleSelectCidsComponent  -->
<g id="edge20" class="edge">
<title>SharedModule&#45;&gt;MultipleSelectCidsComponent </title>
<path fill="none" stroke="black" stroke-dasharray="5,2" d="M1253.75,-184C1201.95,-184 1127.88,-184 1127.88,-184 1127.88,-184 1127.88,-205.95 1127.88,-205.95"/>
<polygon fill="black" stroke="black" points="1124.38,-205.95 1127.88,-215.95 1131.38,-205.95 1124.38,-205.95"/>
</g>
<!-- MultipleSelectDrugsComponent  -->
<g id="node22" class="node">
<title>MultipleSelectDrugsComponent </title>
<polygon fill="#fb8072" stroke="black" points="957.97,-252 756.03,-252 756.03,-216 957.97,-216 957.97,-252"/>
<text text-anchor="middle" x="857" y="-229.8" font-family="Times,serif" font-size="14.00">MultipleSelectDrugsComponent </text>
</g>
<!-- SharedModule&#45;&gt;MultipleSelectDrugsComponent  -->
<g id="edge21" class="edge">
<title>SharedModule&#45;&gt;MultipleSelectDrugsComponent </title>
<path fill="none" stroke="black" stroke-dasharray="5,2" d="M1253.78,-181C1149.21,-181 914.38,-181 914.38,-181 914.38,-181 914.38,-205.76 914.38,-205.76"/>
<polygon fill="black" stroke="black" points="910.88,-205.76 914.38,-215.76 917.88,-205.76 910.88,-205.76"/>
</g>
<!-- MultipleSelectHospitalsComponent  -->
<g id="node23" class="node">
<title>MultipleSelectHospitalsComponent </title>
<polygon fill="#fb8072" stroke="black" points="738.14,-252 517.86,-252 517.86,-216 738.14,-216 738.14,-252"/>
<text text-anchor="middle" x="628" y="-229.8" font-family="Times,serif" font-size="14.00">MultipleSelectHospitalsComponent </text>
</g>
<!-- SharedModule&#45;&gt;MultipleSelectHospitalsComponent  -->
<g id="edge22" class="edge">
<title>SharedModule&#45;&gt;MultipleSelectHospitalsComponent </title>
<path fill="none" stroke="black" stroke-dasharray="5,2" d="M1253.66,-178C1107.58,-178 687.38,-178 687.38,-178 687.38,-178 687.38,-205.97 687.38,-205.97"/>
<polygon fill="black" stroke="black" points="683.88,-205.97 687.38,-215.97 690.88,-205.97 683.88,-205.97"/>
</g>
<!-- MultipleSelectMedicalProceduresComponent  -->
<g id="node24" class="node">
<title>MultipleSelectMedicalProceduresComponent </title>
<polygon fill="#fb8072" stroke="black" points="499.82,-252 224.18,-252 224.18,-216 499.82,-216 499.82,-252"/>
<text text-anchor="middle" x="362" y="-229.8" font-family="Times,serif" font-size="14.00">MultipleSelectMedicalProceduresComponent </text>
</g>
<!-- SharedModule&#45;&gt;MultipleSelectMedicalProceduresComponent  -->
<g id="edge23" class="edge">
<title>SharedModule&#45;&gt;MultipleSelectMedicalProceduresComponent </title>
<path fill="none" stroke="black" stroke-dasharray="5,2" d="M1253.51,-174C1067.84,-174 423.38,-174 423.38,-174 423.38,-174 423.38,-206 423.38,-206"/>
<polygon fill="black" stroke="black" points="419.88,-206 423.38,-216 426.88,-206 419.88,-206"/>
</g>
<!-- PrincipalLoadingComponent  -->
<g id="node25" class="node">
<title>PrincipalLoadingComponent </title>
<polygon fill="#fb8072" stroke="black" points="206.03,-252 23.97,-252 23.97,-216 206.03,-216 206.03,-252"/>
<text text-anchor="middle" x="115" y="-229.8" font-family="Times,serif" font-size="14.00">PrincipalLoadingComponent </text>
</g>
<!-- SharedModule&#45;&gt;PrincipalLoadingComponent  -->
<g id="edge24" class="edge">
<title>SharedModule&#45;&gt;PrincipalLoadingComponent </title>
<path fill="none" stroke="black" stroke-dasharray="5,2" d="M1253.59,-171C1036.54,-171 178.38,-171 178.38,-171 178.38,-171 178.38,-205.78 178.38,-205.78"/>
<polygon fill="black" stroke="black" points="174.88,-205.78 178.38,-215.78 181.88,-205.78 174.88,-205.78"/>
</g>
<!-- IconModule -->
<g id="node13" class="node">
<title>IconModule</title>
<polygon fill="#8dd3c7" stroke="black" points="127.43,-122 124.43,-126 103.43,-126 100.43,-122 42.57,-122 42.57,-86 127.43,-86 127.43,-122"/>
<text text-anchor="middle" x="85" y="-99.8" font-family="Times,serif" font-size="14.00">IconModule</text>
</g>
<!-- IconModule&#45;&gt;SharedModule -->
<g id="edge12" class="edge">
<title>IconModule&#45;&gt;SharedModule</title>
<path fill="none" stroke="black" d="M85,-122.17C85,-141.09 85,-168 85,-168 85,-168 1243.74,-168 1243.74,-168"/>
<polygon fill="black" stroke="black" points="1243.74,-171.5 1253.74,-168 1243.74,-164.5 1243.74,-171.5"/>
</g>
</g>
</svg>
